#VRML V2.0 utf8
DEF TXFM_1 Transform {
  center 0 0 0
  rotation 0 0 1 0
  scale 1 1 1
  scaleOrientation 0 0 1 0
  translation 0 0 0
 children [
DEF TXFM_2 Transform {
  center 0 0 0
  rotation 0 0 1 0
  scale 1 1 1
  scaleOrientation 0 0 1 0
  translation 0 0 0
 children [
DEF TXFM_3 Transform {
  center 0 0 0
  rotation 0 0 1 0
  scale 1 1 1
  scaleOrientation 0 0 1 0
  translation 0 0 0
 children [
DEF SHAPE_1 Shape {
 appearance DEF APP_1 Appearance {
  material Material {
   ambientIntensity 0.122244
   diffuseColor 0.824 0.81999999 0.78100002
   emissiveColor 0 0 0
   shininess 0.1
   specularColor 0.12 0.12 0.12
   transparency 0
} }
 geometry DEF FACE_1 IndexedFaceSet {
  coord DEF COORD_1 Coordinate { point [
  0.68897638 -0.12795276 0,0.68897638 -0.12795276 0.078740157,
  0.68897638 0.12795276 0,0.68897638 0.12795276 0.078740157] }
 coordIndex [
  1,0,2,-1,1,2,3,-1]
  normalPerVertex TRUE
  normal DEF NORM_1 Normal { vector [
  1 0 0,1 0 0,
  1 0 0,1 0 0] }
}
}
DEF SHAPE_2 Shape {
 appearance USE APP_1
 geometry DEF FACE_2 IndexedFaceSet {
  coord DEF COORD_2 Coordinate { point [
  0.50630498 -0.12795276 0,0.68897638 -0.12795276 0,
  0.51181102 -0.12795276 0.078740157,0.68897638 -0.12795276 0.078740157] }
 coordIndex [
  1,2,0,-1,3,2,1,-1]
  normalPerVertex TRUE
  normal DEF NORM_2 Normal { vector [
  0 -1 0,0 -1 0,
  0 -1 0,0 -1 0] }
}
}
DEF SHAPE_3 Shape {
 appearance USE APP_1
 geometry DEF FACE_3 IndexedFaceSet {
  coord DEF COORD_3 Coordinate { point [
  0.51181102 -0.12795276 0.078740157,0.51181102 0.12795276 0.078740157,
  0.68897638 -0.12795276 0.078740157,0.68897638 0.12795276 0.078740157] }
 coordIndex [
  3,1,0,-1,3,0,2,-1]
  normalPerVertex TRUE
  normal DEF NORM_3 Normal { vector [
  0 0 1,0 0 1,
  0 0 1,0 0 1] }
}
}
DEF SHAPE_4 Shape {
 appearance USE APP_1
 geometry DEF FACE_4 IndexedFaceSet {
  coord DEF COORD_4 Coordinate { point [
  0.50630498 0.12795276 0,0.68897638 0.12795276 0,
  0.51181102 0.12795276 0.078740157,0.68897638 0.12795276 0.078740157] }
 coordIndex [
  1,0,2,-1,3,1,2,-1]
  normalPerVertex TRUE
  normal DEF NORM_4 Normal { vector [
  0 1 0,0 1 0,
  0 1 0,0 1 0] }
}
}
DEF SHAPE_5 Shape {
 appearance USE APP_1
 geometry DEF FACE_5 IndexedFaceSet {
  coord DEF COORD_5 Coordinate { point [
  0.50630498 -0.12795276 0,0.50630498 0.12795276 0,
  0.68897638 -0.12795276 0,0.68897638 0.12795276 0] }
 coordIndex [
  3,0,1,-1,3,2,0,-1]
  normalPerVertex TRUE
  normal DEF NORM_5 Normal { vector [
  0 0 -1,0 0 -1,
  0 0 -1,0 0 -1] }
}
}
DEF SHAPE_6 Shape {
 appearance DEF APP_2 Appearance {
  material Material {
   ambientIntensity 0.686634
   diffuseColor 0.148 0.145 0.145
   emissiveColor 0 0 0
   shininess 0.1
   specularColor 0.12 0.12 0.12
   transparency 0
} }
 geometry DEF FACE_6 IndexedFaceSet {
  coord DEF COORD_6 Coordinate { point [
  0.50630498 -0.30945458 0,0.51181102 -0.31496063 0.078740157,
  0.50630498 -0.12795276 0,0.51181102 -0.12795276 0.078740157] }
 coordIndex [
  2,1,0,-1,3,1,2,-1]
  normalPerVertex TRUE
  normal DEF NORM_6 Normal { vector [
  0.99756405 0 -0.069756474,0.99756405 0 -0.069756474,
  0.99756405 0 -0.069756474,0.99756405 0 -0.069756474] }
}
}
DEF SHAPE_7 Shape {
 appearance USE APP_2
 geometry DEF FACE_7 IndexedFaceSet {
  coord DEF COORD_7 Coordinate { point [
  0.51181102 -0.31496063 0.078740157,0.51181102 -0.12795276 0.078740157,
  0.51181102 0.12795276 0.078740157,0.51181102 0.31496063 0.078740157,
  0.48703381 0.29018341 0.43307087,0.48703381 -0.29018341 0.43307087] }
 coordIndex [
  5,0,1,-1,4,1,2,-1,4,2,3,-1,4,5,1,-1]
  normalPerVertex TRUE
  normal DEF NORM_7 Normal { vector [
  0.99756405 0 0.069756474,0.99756405 0 0.069756474,
  0.99756405 0 0.069756474,0.99756405 0 0.069756474,
  0.99756405 0 0.069756474,0.99756405 0 0.069756474] }
}
}
DEF SHAPE_8 Shape {
 appearance USE APP_2
 geometry DEF FACE_8 IndexedFaceSet {
  coord DEF COORD_8 Coordinate { point [
  0.50630498 0.12795276 0,0.51181102 0.12795276 0.078740157,
  0.50630498 0.30945458 0,0.51181102 0.31496063 0.078740157] }
 coordIndex [
  3,1,0,-1,3,0,2,-1]
  normalPerVertex TRUE
  normal DEF NORM_8 Normal { vector [
  0.99756405 0 -0.069756474,0.99756405 0 -0.069756474,
  0.99756405 0 -0.069756474,0.99756405 0 -0.069756474] }
}
}
DEF SHAPE_9 Shape {
 appearance USE APP_2
 geometry DEF FACE_9 IndexedFaceSet {
  coord DEF COORD_9 Coordinate { point [
  -0.50630498 -0.30945458 0,0.50630498 -0.30945458 0,
  -0.50630498 -0.12795276 0,-0.50630498 0.12795276 0,
  -0.50630498 0.30945458 0,0.50630498 0.30945458 0,
  0.50630498 0.12795276 0,0.50630498 -0.12795276 0] }
 coordIndex [
  6,2,3,-1,6,3,4,-1,6,4,5,-1,7,0,2,-1,7,2,6,-1,1,0,7,-1]
  normalPerVertex TRUE
  normal DEF NORM_9 Normal { vector [
  0 0 -1,0 0 -1,
  0 0 -1,0 0 -1,
  0 0 -1,0 0 -1,
  0 0 -1,0 0 -1] }
}
}
DEF SHAPE_10 Shape {
 appearance USE APP_2
 geometry DEF FACE_10 IndexedFaceSet {
  coord DEF COORD_10 Coordinate { point [
  -0.50630498 -0.30945458 0,0.50630498 -0.30945458 0,
  0.51181102 -0.31496063 0.078740157,-0.51181102 -0.31496063 0.078740157] }
 coordIndex [
  2,0,1,-1,2,3,0,-1]
  normalPerVertex TRUE
  normal DEF NORM_10 Normal { vector [
  0 -0.99756405 -0.069756474,0 -0.99756405 -0.069756474,
  0 -0.99756405 -0.069756474,0 -0.99756405 -0.069756474] }
}
}
DEF SHAPE_11 Shape {
 appearance USE APP_2
 geometry DEF FACE_11 IndexedFaceSet {
  coord DEF COORD_11 Coordinate { point [
  -0.51181102 -0.31496063 0.078740157,0.51181102 -0.31496063 0.078740157,
  0.48703381 -0.29018341 0.43307087,-0.48703381 -0.29018341 0.43307087] }
 coordIndex [
  2,0,1,-1,2,3,0,-1]
  normalPerVertex TRUE
  normal DEF NORM_11 Normal { vector [
  0 -0.99756405 0.069756474,0 -0.99756405 0.069756474,
  0 -0.99756405 0.069756474,0 -0.99756405 0.069756474] }
}
}
DEF SHAPE_12 Shape {
 appearance USE APP_2
 geometry DEF FACE_12 IndexedFaceSet {
  coord DEF COORD_12 Coordinate { point [
  -0.48703381 -0.29018341 0.43307087,0.48703381 -0.29018341 0.43307087,
  -0.48703381 0.29018341 0.43307087,0.48703381 0.29018341 0.43307087,
  -0.30986845 0.27049837 0.43307087,-0.30986845 -0.27049837 0.43307087,
  -0.46734877 0.27049837 0.43307087,-0.46734877 -0.27049837 0.43307087] }
 coordIndex [
  7,2,0,-1,7,6,2,-1,4,2,6,-1,5,7,0,-1,1,4,5,-1,1,3,4,-1,1,5,0,-1,2,4,3,-1]
  normalPerVertex TRUE
  normal DEF NORM_12 Normal { vector [
  0 0 1,0 0 1,
  0 0 1,0 0 1,
  0 0 1,0 0 1,
  0 0 1,0 0 1] }
}
}
DEF SHAPE_13 Shape {
 appearance USE APP_2
 geometry DEF FACE_13 IndexedFaceSet {
  coord DEF COORD_13 Coordinate { point [
  0.51181102 0.31496063 0.078740157,-0.51181102 0.31496063 0.078740157,
  -0.48703381 0.29018341 0.43307087,0.48703381 0.29018341 0.43307087] }
 coordIndex [
  2,0,1,-1,2,3,0,-1]
  normalPerVertex TRUE
  normal DEF NORM_13 Normal { vector [
  0 0.99756405 0.069756474,0 0.99756405 0.069756474,
  0 0.99756405 0.069756474,0 0.99756405 0.069756474] }
}
}
DEF SHAPE_14 Shape {
 appearance USE APP_2
 geometry DEF FACE_14 IndexedFaceSet {
  coord DEF COORD_14 Coordinate { point [
  0.50630498 0.30945458 0,-0.50630498 0.30945458 0,
  -0.51181102 0.31496063 0.078740157,0.51181102 0.31496063 0.078740157] }
 coordIndex [
  2,0,1,-1,2,3,0,-1]
  normalPerVertex TRUE
  normal DEF NORM_14 Normal { vector [
  0 0.99756405 -0.069756474,0 0.99756405 -0.069756474,
  0 0.99756405 -0.069756474,0 0.99756405 -0.069756474] }
}
}
DEF SHAPE_15 Shape {
 appearance USE APP_2
 geometry DEF FACE_15 IndexedFaceSet {
  coord DEF COORD_15 Coordinate { point [
  -0.50630498 -0.12795276 0,-0.51181102 -0.12795276 0.078740157,
  -0.50630498 -0.30945458 0,-0.51181102 -0.31496063 0.078740157] }
 coordIndex [
  3,1,0,-1,3,0,2,-1]
  normalPerVertex TRUE
  normal DEF NORM_15 Normal { vector [
  -0.99756405 0 -0.069756474,-0.99756405 0 -0.069756474,
  -0.99756405 0 -0.069756474,-0.99756405 0 -0.069756474] }
}
}
DEF SHAPE_16 Shape {
 appearance USE APP_1
 geometry DEF FACE_16 IndexedFaceSet {
  coord DEF COORD_16 Coordinate { point [
  -0.50630498 0.12795276 0,-0.50630498 -0.12795276 0,
  -0.68897638 0.12795276 0,-0.68897638 -0.12795276 0] }
 coordIndex [
  3,0,1,-1,3,2,0,-1]
  normalPerVertex TRUE
  normal DEF NORM_16 Normal { vector [
  0 0 -1,0 0 -1,
  0 0 -1,0 0 -1] }
}
}
DEF SHAPE_17 Shape {
 appearance USE APP_2
 geometry DEF FACE_17 IndexedFaceSet {
  coord DEF COORD_17 Coordinate { point [
  -0.50630498 0.30945458 0,-0.51181102 0.31496063 0.078740157,
  -0.50630498 0.12795276 0,-0.51181102 0.12795276 0.078740157] }
 coordIndex [
  2,1,0,-1,3,1,2,-1]
  normalPerVertex TRUE
  normal DEF NORM_17 Normal { vector [
  -0.99756405 0 -0.069756474,-0.99756405 0 -0.069756474,
  -0.99756405 0 -0.069756474,-0.99756405 0 -0.069756474] }
}
}
DEF SHAPE_18 Shape {
 appearance USE APP_2
 geometry DEF FACE_18 IndexedFaceSet {
  coord DEF COORD_18 Coordinate { point [
  -0.51181102 0.31496063 0.078740157,-0.51181102 0.12795276 0.078740157,
  -0.51181102 -0.12795276 0.078740157,-0.51181102 -0.31496063 0.078740157,
  -0.48703381 -0.29018341 0.43307087,-0.48703381 0.29018341 0.43307087] }
 coordIndex [
  5,0,1,-1,4,1,2,-1,4,2,3,-1,4,5,1,-1]
  normalPerVertex TRUE
  normal DEF NORM_18 Normal { vector [
  -0.99756405 0 0.069756474,-0.99756405 0 0.069756474,
  -0.99756405 0 0.069756474,-0.99756405 0 0.069756474,
  -0.99756405 0 0.069756474,-0.99756405 0 0.069756474] }
}
}
DEF SHAPE_19 Shape {
 appearance DEF APP_3 Appearance {
  material Material {
   ambientIntensity 0.15038072
   diffuseColor 0.69099998 0.66399997 0.59799999
   emissiveColor 0 0 0
   shininess 0.1
   specularColor 0.12 0.12 0.12
   transparency 0
} }
 geometry DEF FACE_19 IndexedFaceSet {
  coord DEF COORD_19 Coordinate { point [
  -0.30986845 -0.27049837 0.42913386,-0.30986845 -0.27049837 0.43307087,
  -0.30986845 0.27049837 0.42913386,-0.30986845 0.27049837 0.43307087] }
 coordIndex [
  1,2,0,-1,1,3,2,-1]
  normalPerVertex TRUE
  normal DEF NORM_19 Normal { vector [
  -1 0 0,-1 0 0,
  -1 0 0,-1 0 0] }
}
}
DEF SHAPE_20 Shape {
 appearance USE APP_3
 geometry DEF FACE_20 IndexedFaceSet {
  coord DEF COORD_20 Coordinate { point [
  -0.30986845 -0.27049837 0.42913386,-0.30986845 -0.27049837 0.43307087,
  -0.46734877 -0.27049837 0.42913386,-0.46734877 -0.27049837 0.43307087] }
 coordIndex [
  1,0,2,-1,1,2,3,-1]
  normalPerVertex TRUE
  normal DEF NORM_20 Normal { vector [
  0 1 0,0 1 0,
  0 1 0,0 1 0] }
}
}
DEF SHAPE_21 Shape {
 appearance USE APP_3
 geometry DEF FACE_21 IndexedFaceSet {
  coord DEF COORD_21 Coordinate { point [
  -0.46734877 -0.27049837 0.42913386,-0.46734877 -0.27049837 0.43307087,
  -0.46734877 0.27049837 0.42913386,-0.46734877 0.27049837 0.43307087] }
 coordIndex [
  1,0,2,-1,1,2,3,-1]
  normalPerVertex TRUE
  normal DEF NORM_21 Normal { vector [
  1 0 0,1 0 0,
  1 0 0,1 0 0] }
}
}
DEF SHAPE_22 Shape {
 appearance USE APP_3
 geometry DEF FACE_22 IndexedFaceSet {
  coord DEF COORD_22 Coordinate { point [
  -0.30986845 0.27049837 0.42913386,-0.30986845 0.27049837 0.43307087,
  -0.46734877 0.27049837 0.42913386,-0.46734877 0.27049837 0.43307087] }
 coordIndex [
  1,2,0,-1,1,3,2,-1]
  normalPerVertex TRUE
  normal DEF NORM_22 Normal { vector [
  0 -1 0,0 -1 0,
  0 -1 0,0 -1 0] }
}
}
DEF SHAPE_23 Shape {
 appearance USE APP_1
 geometry DEF FACE_23 IndexedFaceSet {
  coord DEF COORD_23 Coordinate { point [
  -0.50630498 -0.12795276 0,-0.68897638 -0.12795276 0,
  -0.51181102 -0.12795276 0.078740157,-0.68897638 -0.12795276 0.078740157] }
 coordIndex [
  1,0,2,-1,3,1,2,-1]
  normalPerVertex TRUE
  normal DEF NORM_23 Normal { vector [
  0 -1 0,0 -1 0,
  0 -1 0,0 -1 0] }
}
}
DEF SHAPE_24 Shape {
 appearance USE APP_1
 geometry DEF FACE_24 IndexedFaceSet {
  coord DEF COORD_24 Coordinate { point [
  -0.50630498 0.12795276 0,-0.68897638 0.12795276 0,
  -0.51181102 0.12795276 0.078740157,-0.68897638 0.12795276 0.078740157] }
 coordIndex [
  1,2,0,-1,3,2,1,-1]
  normalPerVertex TRUE
  normal DEF NORM_24 Normal { vector [
  0 1 0,0 1 0,
  0 1 0,0 1 0] }
}
}
DEF SHAPE_25 Shape {
 appearance USE APP_1
 geometry DEF FACE_25 IndexedFaceSet {
  coord DEF COORD_25 Coordinate { point [
  -0.68897638 0.12795276 0,-0.68897638 0.12795276 0.078740157,
  -0.68897638 -0.12795276 0,-0.68897638 -0.12795276 0.078740157] }
 coordIndex [
  1,0,2,-1,1,2,3,-1]
  normalPerVertex TRUE
  normal DEF NORM_25 Normal { vector [
  -1 0 0,-1 0 0,
  -1 0 0,-1 0 0] }
}
}
DEF SHAPE_26 Shape {
 appearance USE APP_1
 geometry DEF FACE_26 IndexedFaceSet {
  coord DEF COORD_26 Coordinate { point [
  -0.51181102 0.12795276 0.078740157,-0.51181102 -0.12795276 0.078740157,
  -0.68897638 0.12795276 0.078740157,-0.68897638 -0.12795276 0.078740157] }
 coordIndex [
  3,1,0,-1,3,0,2,-1]
  normalPerVertex TRUE
  normal DEF NORM_26 Normal { vector [
  0 0 1,0 0 1,
  0 0 1,0 0 1] }
}
}
DEF SHAPE_27 Shape {
 appearance USE APP_3
 geometry DEF FACE_27 IndexedFaceSet {
  coord DEF COORD_27 Coordinate { point [
  -0.46734877 -0.27049837 0.42913386,-0.46734877 0.27049837 0.42913386,
  -0.30986845 -0.27049837 0.42913386,-0.30986845 0.27049837 0.42913386] }
 coordIndex [
  3,1,0,-1,3,0,2,-1]
  normalPerVertex TRUE
  normal DEF NORM_27 Normal { vector [
  0 0 1,0 0 1,
  0 0 1,0 0 1] }
}
}
] }
] }
] }
