#VRML V2.0 utf8
DEF TXFM_1 Transform {
  center 0 0 0
  rotation 0 0 1 0
  scale 1 1 1
  scaleOrientation 0 0 1 0
  translation 0 0 0
 children [
DEF TXFM_2 Transform {
  center 0 0 0
  rotation 0 0 1 0
  scale 1 1 1
  scaleOrientation 0 0 1 0
  translation 0 0 0
 children [
DEF TXFM_3 Transform {
  center 0 0 0
  rotation 0 0 1 0
  scale 1 1 1
  scaleOrientation 0 0 1 0
  translation 0 0 0
 children [
DEF SHAPE_1 Shape {
 appearance DEF APP_1 Appearance {
  material Material {
   ambientIntensity 1
   diffuseColor 0.1 0.050000001 0.1
   emissiveColor 0 0 0
   shininess 0.1
   specularColor 0.12 0.12 0.12
   transparency 0
} }
 geometry DEF FACE_1 IndexedFaceSet {
  coord DEF COORD_1 Coordinate { point [
  1.0708661 0 2.6968504,1.0514143 0 2.8446014,
  0.99438458 0 2.9822835,0.90366332 0 3.1005137,
  0.78543307 0 3.191235,0.64775103 0 3.2482647,
  0.5 0 3.2677165,0.5 0 3.2677165,
  1.0708661 0 2.6968504,1.0514143 0 2.8446014,
  0.99438458 0 2.9822835,0.90366332 0 3.1005137,
  0.78543307 0 3.191235,0.64775103 0 3.2482647,
  1.0514143 -0.14775103 2.6968504,0.99438458 -0.28543307 2.6968504,
  0.90366332 -0.40366332 2.6968504,0.78543307 -0.49438458 2.6968504,
  0.64775103 -0.55141435 2.6968504,0.5 -0.57086614 2.6968504,
  0.35224897 -0.55141435 2.6968504,0.21456693 -0.49438458 2.6968504,
  0.09633668 -0.40366332 2.6968504,0.0056154191 -0.28543307 2.6968504,
  -0.05141435 -0.14775103 2.6968504,-0.070866142 0 2.6968504,
  -0.05141435 0.14775103 2.6968504,0.0056154191 0.28543307 2.6968504,
  0.09633668 0.40366332 2.6968504,0.21456693 0.49438458 2.6968504,
  0.35224897 0.55141435 2.6968504,0.5 0.57086614 2.6968504,
  0.64775103 0.55141435 2.6968504,0.78543307 0.49438458 2.6968504,
  0.90366332 0.40366332 2.6968504,0.99438458 0.28543307 2.6968504,
  1.0514143 0.14775103 2.6968504,1.0346777 0.094278104 2.8732577,
  0.97018768 0.27146298 2.8732577,0.84898608 0.41590542 2.8732577,
  0.93398803 0.15795872 3.0323971,0.68569162 0.51018352 2.8732577,
  0.85379028 0.29686529 3.0323971,0.83044899 0.058267073 3.1586908,
  0.5 0.54292596 2.8732577,0.73092021 0.39996553 3.0323971,
  0.79059197 0.16777335 3.1586908,0.31430838 0.51018352 2.8732577,
  0.58019775 0.45482402 3.0323971,0.71568526 0.25704368 3.1586908,
  0.66576868 0.060334863 3.2397764,0.15101392 0.41590542 2.8732577,
  0.41980225 0.45482402 3.0323971,0.61476373 0.31531076 3.1586908,
  0.63513586 0.11339245 3.2397764,0.029812323 0.27146298 2.8732577,
  0.26907979 0.39996553 3.0323971,0.5 0.3355467 3.1586908,
  0.58820367 0.15277324 3.2397764,-0.034677699 0.094278104 2.8732577,
  0.14620972 0.29686529 3.0323971,0.38523627 0.31531076 3.1586908,
  0.53063281 0.17372732 3.2397764,-0.034677699 -0.094278104 2.8732577,
  0.066011975 0.15795872 3.0323971,0.28431474 0.25704368 3.1586908,
  0.46936719 0.17372732 3.2397764,0.029812323 -0.27146298 2.8732577,
  0.03815959 0 3.0323971,0.20940803 0.16777335 3.1586908,
  0.41179633 0.15277324 3.2397764,0.15101392 -0.41590542 2.8732577,
  0.066011975 -0.15795872 3.0323971,0.16955101 0.058267073 3.1586908,
  0.36486414 0.11339245 3.2397764,0.31430838 -0.51018352 2.8732577,
  0.14620972 -0.29686529 3.0323971,0.16955101 -0.058267073 3.1586908,
  0.33423132 0.060334863 3.2397764,0.5 -0.54292596 2.8732577,
  0.26907979 -0.39996553 3.0323971,0.20940803 -0.16777335 3.1586908,
  0.32359266 0 3.2397764,0.68569162 -0.51018352 2.8732577,
  0.41980225 -0.45482402 3.0323971,0.28431474 -0.25704368 3.1586908,
  0.33423132 -0.060334863 3.2397764,0.84898608 -0.41590542 2.8732577,
  0.58019775 -0.45482402 3.0323971,0.38523627 -0.31531076 3.1586908,
  0.36486414 -0.11339245 3.2397764,0.97018768 -0.27146298 2.8732577,
  0.73092021 -0.39996553 3.0323971,0.5 -0.3355467 3.1586908,
  0.41179633 -0.15277324 3.2397764,1.0346777 -0.094278104 2.8732577,
  0.85379028 -0.29686529 3.0323971,0.61476373 -0.31531076 3.1586908,
  0.46936719 -0.17372732 3.2397764,0.93398803 -0.15795872 3.0323971,
  0.71568526 -0.25704368 3.1586908,0.53063281 -0.17372732 3.2397764,
  0.79059197 -0.16777335 3.1586908,0.58820367 -0.15277324 3.2397764,
  0.83044899 -0.058267073 3.1586908,0.63513586 -0.11339245 3.2397764,
  0.66576868 -0.060334863 3.2397764] }
 coordIndex [
  9,8,36,-1,1,14,0,-1,37,10,9,-1,37,9,36,-1,38,35,34,-1,38,36,35,-1,38,37,36,-1,39,34,33,-1,
  39,38,34,-1,40,10,37,-1,40,11,10,-1,40,37,38,-1,41,33,32,-1,41,39,33,-1,42,40,38,-1,42,38,39,-1,
  43,12,11,-1,43,11,40,-1,44,31,30,-1,44,32,31,-1,44,41,32,-1,45,42,39,-1,45,39,41,-1,46,40,42,-1,
  46,43,40,-1,47,30,29,-1,47,44,30,-1,48,41,44,-1,48,45,41,-1,49,42,45,-1,49,46,42,-1,50,13,12,-1,
  50,7,13,-1,50,43,46,-1,50,12,43,-1,51,29,28,-1,51,47,29,-1,52,48,44,-1,52,44,47,-1,53,45,48,-1,
  53,49,45,-1,54,46,49,-1,54,50,46,-1,54,7,50,-1,55,27,26,-1,55,28,27,-1,55,51,28,-1,56,47,51,-1,
  56,52,47,-1,57,48,52,-1,57,53,48,-1,58,49,53,-1,58,7,54,-1,58,54,49,-1,59,55,26,-1,59,26,25,-1,
  60,56,51,-1,60,51,55,-1,61,52,56,-1,61,57,52,-1,62,53,57,-1,62,58,53,-1,62,7,58,-1,63,25,24,-1,
  63,59,25,-1,64,60,55,-1,64,55,59,-1,65,56,60,-1,65,61,56,-1,66,7,62,-1,66,57,61,-1,66,62,57,-1,
  67,23,22,-1,67,24,23,-1,67,63,24,-1,68,59,63,-1,68,64,59,-1,69,65,60,-1,69,60,64,-1,70,61,65,-1,
  70,7,66,-1,70,66,61,-1,71,67,22,-1,71,22,21,-1,72,63,67,-1,72,68,63,-1,73,64,68,-1,73,69,64,-1,
  74,7,70,-1,74,65,69,-1,74,70,65,-1,75,21,20,-1,75,71,21,-1,76,67,71,-1,76,72,67,-1,77,73,68,-1,
  77,68,72,-1,78,7,74,-1,78,69,73,-1,78,74,69,-1,79,75,20,-1,79,19,18,-1,79,20,19,-1,80,76,71,-1,
  80,71,75,-1,81,72,76,-1,81,77,72,-1,82,6,7,-1,82,73,77,-1,82,78,73,-1,82,7,78,-1,83,18,17,-1,
  83,79,18,-1,84,80,75,-1,84,75,79,-1,85,76,80,-1,85,81,76,-1,86,77,81,-1,86,82,77,-1,86,6,82,-1,
  87,17,16,-1,87,83,17,-1,88,79,83,-1,88,84,79,-1,89,85,80,-1,89,80,84,-1,90,81,85,-1,90,6,86,-1,
  90,86,81,-1,91,15,14,-1,91,16,15,-1,91,87,16,-1,92,83,87,-1,92,88,83,-1,93,84,88,-1,93,89,84,-1,
  94,90,85,-1,94,85,89,-1,94,6,90,-1,95,14,1,-1,95,1,2,-1,95,91,14,-1,96,87,91,-1,96,92,87,-1,
  97,88,92,-1,97,93,88,-1,98,89,93,-1,98,94,89,-1,98,6,94,-1,99,2,3,-1,99,95,2,-1,99,91,95,-1,
  99,96,91,-1,100,97,92,-1,100,92,96,-1,101,6,98,-1,101,93,97,-1,101,98,93,-1,102,96,99,-1,102,100,96,-1,
  103,6,101,-1,103,97,100,-1,103,101,97,-1,104,3,4,-1,104,99,3,-1,104,102,99,-1,105,6,103,-1,105,100,102,-1,
  105,103,100,-1,106,4,5,-1,106,5,6,-1,106,104,4,-1,106,102,104,-1,106,105,102,-1,106,6,105,-1]
  normalPerVertex TRUE
  normal DEF NORM_1 Normal { vector [
  0.9831056 -0.12942831 0.12942831,0.9741028 -0.1106407 0.19718615,
  0.85356835 -0.12468534 0.50584053,0.72759113 -0.10939403 0.67723267,
  0.4765948 -0.056907265 0.8772793,0.25837574 -0.05850324 0.96427141,
  -0.0054112679 -0.11056294 0.99385439,-0.0054112679 0.11056294 0.99385439,
  0.9831056 0.12942831 0.12942831,0.9741028 0.1106407 0.19718615,
  0.85356835 0.12468534 0.50584053,0.72759113 0.10939403 0.67723267,
  0.4765948 0.056907265 0.8772793,0.25837574 0.05850324 0.96427141,
  0.95076442 -0.26654218 0.15812112,0.85536319 -0.49384417 0.15643447,
  0.72100743 -0.6735906 0.1625546,0.49355064 -0.85485478 0.16009706,
  0.22284286 -0.96120605 0.1625546,0 -0.98768834 0.15643447,
  -0.22284286 -0.96120605 0.1625546,-0.49355064 -0.85485478 0.16009706,
  -0.72100743 -0.6735906 0.1625546,-0.85536319 -0.49384417 0.15643447,
  -0.94385028 -0.28761545 0.1625546,-0.98710128 0 0.16009706,
  -0.94385028 0.28761545 0.1625546,-0.85536319 0.49384417 0.15643447,
  -0.72100743 0.6735906 0.1625546,-0.49355064 0.85485478 0.16009706,
  -0.22284286 0.96120605 0.1625546,0 0.98768834 0.15643447,
  0.22284286 0.96120605 0.1625546,0.49355064 0.85485478 0.16009706,
  0.72100743 0.6735906 0.1625546,0.85536319 0.49384417 0.15643447,
  0.95076442 0.26654218 0.15812112,0.91490299 0.2385774 0.32562761,
  0.82721426 0.47759237 0.2960103,0.60553055 0.73124437 0.31402933,
  0.76788624 0.27534143 0.57839244,0.33051092 0.89002703 0.31402933,
  0.6250706 0.52449651 0.57809181,0.58025967 0.16369323 0.79781153,
  0 0.95518475 0.2960103,0.40798586 0.70665224 0.57809181,
  0.52488533 0.30304268 0.7953996,-0.33051092 0.89002703 0.31402933,
  0.141692 0.80357528 0.57809181,0.38958417 0.46428833 0.7953996,
  0.34226206 0.13260368 0.93020049,-0.60553055 0.73124437 0.31402933,
  -0.141692 0.80357528 0.57809181,0.2072934 0.56953395 0.7953996,
  0.27380778 0.22975201 0.93393967,-0.82721426 0.47759237 0.2960103,
  -0.40798586 0.70665224 0.57809181,0 0.60608537 0.7953996,
  0.17871534 0.30954404 0.93393967,-0.93604148 0.15878266 0.31402933,
  -0.6250706 0.52449651 0.57809181,-0.2072934 0.56953395 0.7953996,
  0.062067185 0.3520005 0.93393967,-0.93604148 -0.15878266 0.31402933,
  -0.76676261 0.27907877 0.57809181,-0.38958417 0.46428833 0.7953996,
  -0.062067185 0.3520005 0.93393967,-0.82721426 -0.47759237 0.2960103,
  -0.81597172 0 0.57809181,-0.52488533 0.30304268 0.7953996,
  -0.17871534 0.30954404 0.93393967,-0.60553055 -0.73124437 0.31402933,
  -0.76676261 -0.27907877 0.57809181,-0.59687757 0.10524562 0.7953996,
  -0.27380778 0.22975201 0.93393967,-0.33051092 -0.89002703 0.31402933,
  -0.6250706 -0.52449651 0.57809181,-0.59687757 -0.10524562 0.7953996,
  -0.33587496 0.12224849 0.93393967,0 -0.95518475 0.2960103,
  -0.40798586 -0.70665224 0.57809181,-0.52488533 -0.30304268 0.7953996,
  -0.35743067 0 0.93393967,0.33051092 -0.89002703 0.31402933,
  -0.141692 -0.80357528 0.57809181,-0.38958417 -0.46428833 0.7953996,
  -0.33587496 -0.12224849 0.93393967,0.60553055 -0.73124437 0.31402933,
  0.141692 -0.80357528 0.57809181,-0.2072934 -0.56953395 0.7953996,
  -0.27380778 -0.22975201 0.93393967,0.82721426 -0.47759237 0.2960103,
  0.40798586 -0.70665224 0.57809181,0 -0.60608537 0.7953996,
  -0.17871534 -0.30954404 0.93393967,0.91490299 -0.2385774 0.32562761,
  0.6250706 -0.52449651 0.57809181,0.2072934 -0.56953395 0.7953996,
  -0.062067185 -0.3520005 0.93393967,0.76788624 -0.27534143 0.57839244,
  0.38958417 -0.46428833 0.7953996,0.062067185 -0.3520005 0.93393967,
  0.52488533 -0.30304268 0.7953996,0.17871534 -0.30954404 0.93393967,
  0.58025967 -0.16369323 0.79781153,0.27380778 -0.22975201 0.93393967,
  0.34226206 -0.13260368 0.93020049] }
}
}
DEF SHAPE_2 Shape {
 appearance USE APP_1
 geometry DEF FACE_2 IndexedFaceSet {
  coord DEF COORD_2 Coordinate { point [
  1.0708661 0 2.6968504,1.0708661 0 1.5748031,
  1.0514143 -0.14775103 2.6968504,0.99438458 -0.28543307 2.6968504,
  0.90366332 -0.40366332 2.6968504,0.78543307 -0.49438458 2.6968504,
  0.64775103 -0.55141435 2.6968504,0.5 -0.57086614 2.6968504,
  0.35224897 -0.55141435 2.6968504,0.21456693 -0.49438458 2.6968504,
  0.09633668 -0.40366332 2.6968504,0.0056154191 -0.28543307 2.6968504,
  -0.05141435 -0.14775103 2.6968504,-0.070866142 0 2.6968504,
  -0.05141435 0.14775103 2.6968504,0.0056154191 0.28543307 2.6968504,
  0.09633668 0.40366332 2.6968504,0.21456693 0.49438458 2.6968504,
  0.35224897 0.55141435 2.6968504,0.5 0.57086614 2.6968504,
  0.64775103 0.55141435 2.6968504,0.78543307 0.49438458 2.6968504,
  0.90366332 0.40366332 2.6968504,0.99438458 0.28543307 2.6968504,
  1.0514143 0.14775103 2.6968504,1.0708661 0 2.6968504,
  1.0708661 0 1.5748031,1.0514143 -0.14775103 1.5748031,
  0.99438458 -0.28543307 1.5748031,0.90366332 -0.40366332 1.5748031,
  0.78543307 -0.49438458 1.5748031,0.64775103 -0.55141435 1.5748031,
  0.5 -0.57086614 1.5748031,0.35224897 -0.55141435 1.5748031,
  0.21456693 -0.49438458 1.5748031,0.09633668 -0.40366332 1.5748031,
  0.0056154191 -0.28543307 1.5748031,-0.05141435 -0.14775103 1.5748031,
  -0.070866142 0 1.5748031,-0.05141435 0.14775103 1.5748031,
  0.0056154191 0.28543307 1.5748031,0.09633668 0.40366332 1.5748031,
  0.21456693 0.49438458 1.5748031,0.35224897 0.55141435 1.5748031,
  0.5 0.57086614 1.5748031,0.64775103 0.55141435 1.5748031,
  0.78543307 0.49438458 1.5748031,0.90366332 0.40366332 1.5748031,
  0.99438458 0.28543307 1.5748031,1.0514143 0.14775103 1.5748031] }
 coordIndex [
  27,1,0,-1,27,0,2,-1,28,2,3,-1,28,27,2,-1,29,3,4,-1,29,28,3,-1,30,4,5,-1,30,29,4,-1,
  31,5,6,-1,31,30,5,-1,32,6,7,-1,32,31,6,-1,33,7,8,-1,33,32,7,-1,34,8,9,-1,34,33,8,-1,
  35,9,10,-1,35,10,11,-1,35,34,9,-1,36,35,11,-1,37,11,12,-1,37,12,13,-1,37,36,11,-1,38,37,13,-1,
  39,38,13,-1,39,13,14,-1,40,39,14,-1,40,14,15,-1,41,40,15,-1,41,15,16,-1,42,16,17,-1,42,41,16,-1,
  43,42,17,-1,43,17,18,-1,44,18,19,-1,44,19,20,-1,44,43,18,-1,45,20,21,-1,45,44,20,-1,46,45,21,-1,
  47,21,22,-1,47,46,21,-1,48,22,23,-1,48,47,22,-1,49,23,24,-1,49,24,25,-1,49,48,23,-1,26,49,25,-1]
  normalPerVertex TRUE
  normal DEF NORM_2 Normal { vector [
  0.99144486 -0.13052619 0,0.99144486 -0.13052619 0,
  0.95364993 -0.30091828 0,0.84327172 -0.5374875 0,
  0.67542593 -0.73742784 0,0.46155098 -0.88711369 0,
  0.21622209 -0.9763442 0,-0.04384197 -0.99903848 0,
  -0.30091828 -0.95364993 0,-0.5374875 -0.84327172 0,
  -0.70710678 -0.70710678 0,-0.8660254 -0.5 0,
  -0.96592583 -0.25881905 0,-1 0 0,
  -0.95364993 0.30091828 0,-0.84327172 0.5374875 0,
  -0.67542593 0.73742784 0,-0.46155098 0.88711369 0,
  -0.21622209 0.9763442 0,0 1 0,
  0.21622209 0.9763442 0,0.5 0.8660254 0,
  0.73742784 0.67542593 0,0.88711369 0.46155098 0,
  0.96592583 0.25881905 0,0.99144486 0.13052619 0,
  0.99144486 0.13052619 0,0.9763442 -0.21622209 0,
  0.88711369 -0.46155098 0,0.73742784 -0.67542593 0,
  0.5374875 -0.84327172 0,0.30091828 -0.95364993 0,
  0.04384197 -0.99903848 0,-0.21622209 -0.9763442 0,
  -0.46155098 -0.88711369 0,-0.70710678 -0.70710678 0,
  -0.8660254 -0.5 0,-0.96592583 -0.25881905 0,
  -1 0 0,-0.9763442 0.21622209 0,
  -0.88711369 0.46155098 0,-0.73742784 0.67542593 0,
  -0.5374875 0.84327172 0,-0.30091828 0.95364993 0,
  0 1 0,0.30091828 0.95364993 0,
  0.5 0.8660254 0,0.67542593 0.73742784 0,
  0.84327172 0.5374875 0,0.96592583 0.25881905 0] }
}
}
DEF SHAPE_3 Shape {
 appearance USE APP_1
 geometry DEF FACE_3 IndexedFaceSet {
  coord DEF COORD_3 Coordinate { point [
  -0.090551181 -0.45913007 1.5748031,0.048004668 -0.59602965 1.5748031,
  0.21720714 -0.69251665 1.5748031,0.40558379 -0.74204899 1.5748031,
  0.60036215 -0.74126821 1.5748031,0.78833565 -0.69022726 1.5748031,
  0.95675915 -0.59238686 1.5748031,1.094213 -0.45438089 1.5748031,
  1.1913775 -0.28556655 1.5748031,1.2416646 -0.09738996 1.5748031,
  1.2416646 0.09738996 1.5748031,1.1913775 0.28556655 1.5748031,
  1.094213 0.45438089 1.5748031,0.95675915 0.59238686 1.5748031,
  0.78833565 0.69022726 1.5748031,0.60036215 0.74126821 1.5748031,
  0.40558379 0.74204899 1.5748031,0.21720714 0.69251665 1.5748031,
  0.048004668 0.59602965 1.5748031,-0.090551181 0.45913007 1.5748031,
  1.0708661 0 1.5748031,1.0514143 -0.14775103 1.5748031,
  0.99438458 -0.28543307 1.5748031,0.90366332 -0.40366332 1.5748031,
  0.78543307 -0.49438458 1.5748031,0.64775103 -0.55141435 1.5748031,
  0.5 -0.57086614 1.5748031,0.35224897 -0.55141435 1.5748031,
  0.21456693 -0.49438458 1.5748031,0.09633668 -0.40366332 1.5748031,
  0.0056154191 -0.28543307 1.5748031,-0.05141435 -0.14775103 1.5748031,
  -0.070866142 0 1.5748031,-0.05141435 0.14775103 1.5748031,
  0.0056154191 0.28543307 1.5748031,0.09633668 0.40366332 1.5748031,
  0.21456693 0.49438458 1.5748031,0.35224897 0.55141435 1.5748031,
  0.5 0.57086614 1.5748031,0.64775103 0.55141435 1.5748031,
  0.78543307 0.49438458 1.5748031,0.90366332 0.40366332 1.5748031,
  0.99438458 0.28543307 1.5748031,1.0514143 0.14775103 1.5748031] }
 coordIndex [
  23,6,7,-1,24,5,6,-1,24,6,23,-1,22,7,8,-1,22,23,7,-1,25,4,5,-1,25,5,24,-1,21,8,9,-1,
  21,22,8,-1,26,3,4,-1,26,4,25,-1,20,9,10,-1,20,21,9,-1,27,2,3,-1,27,3,26,-1,43,10,11,-1,
  43,20,10,-1,28,2,27,-1,42,43,11,-1,1,2,28,-1,12,42,11,-1,29,1,28,-1,41,42,12,-1,0,1,29,-1,
  13,41,12,-1,30,0,29,-1,40,41,13,-1,14,40,13,-1,31,0,30,-1,39,40,14,-1,32,0,31,-1,15,38,39,-1,
  15,39,14,-1,16,38,15,-1,16,37,38,-1,17,37,16,-1,17,36,37,-1,18,36,17,-1,18,35,36,-1,19,32,33,-1,
  19,35,18,-1,19,33,34,-1,19,34,35,-1,0,32,19,-1]
  normalPerVertex TRUE
  normal DEF NORM_3 Normal { vector [
  0 0 1,0 0 1,
  0 0 1,0 0 1,
  0 0 1,0 0 1,
  0 0 1,0 0 1,
  0 0 1,0 0 1,
  0 0 1,0 0 1,
  0 0 1,0 0 1,
  0 0 1,0 0 1,
  0 0 1,0 0 1,
  0 0 1,0 0 1,
  0 0 1,0 0 1,
  0 0 1,0 0 1,
  0 0 1,0 0 1,
  0 0 1,0 0 1,
  0 0 1,0 0 1,
  0 0 1,0 0 1,
  0 0 1,0 0 1,
  0 0 1,0 0 1,
  0 0 1,0 0 1,
  0 0 1,0 0 1,
  0 0 1,0 0 1,
  0 0 1,0 0 1] }
}
}
DEF SHAPE_4 Shape {
 appearance USE APP_1
 geometry DEF FACE_4 IndexedFaceSet {
  coord DEF COORD_4 Coordinate { point [
  -0.090551181 -0.45913007 1.1811024,0.048004668 -0.59602965 1.1811024,
  0.21720714 -0.69251665 1.1811024,0.40558379 -0.74204899 1.1811024,
  0.60036215 -0.74126821 1.1811024,0.78833565 -0.69022726 1.1811024,
  0.95675915 -0.59238686 1.1811024,1.094213 -0.45438089 1.1811024,
  1.1913775 -0.28556655 1.1811024,1.2416646 -0.09738996 1.1811024,
  1.2416646 0.09738996 1.1811024,1.1913775 0.28556655 1.1811024,
  1.094213 0.45438089 1.1811024,0.95675915 0.59238686 1.1811024,
  0.78833565 0.69022726 1.1811024,0.60036215 0.74126821 1.1811024,
  0.40558379 0.74204899 1.1811024,0.21720714 0.69251665 1.1811024,
  0.048004668 0.59602965 1.1811024,-0.090551181 0.45913007 1.1811024,
  -0.090551181 0.45913007 1.5748031,-0.090551181 -0.45913007 1.5748031,
  0.048004668 -0.59602965 1.5748031,0.21720714 -0.69251665 1.5748031,
  0.40558379 -0.74204899 1.5748031,0.60036215 -0.74126821 1.5748031,
  0.78833565 -0.69022726 1.5748031,0.95675915 -0.59238686 1.5748031,
  1.094213 -0.45438089 1.5748031,1.1913775 -0.28556655 1.5748031,
  1.2416646 -0.09738996 1.5748031,1.2416646 0.09738996 1.5748031,
  1.1913775 0.28556655 1.5748031,1.094213 0.45438089 1.5748031,
  0.95675915 0.59238686 1.5748031,0.78833565 0.69022726 1.5748031,
  0.60036215 0.74126821 1.5748031,0.40558379 0.74204899 1.5748031,
  0.21720714 0.69251665 1.5748031,0.048004668 0.59602965 1.5748031] }
 coordIndex [
  18,19,20,-1,18,20,39,-1,17,39,38,-1,17,18,39,-1,16,38,37,-1,16,17,38,-1,15,37,36,-1,15,16,37,-1,
  14,36,35,-1,14,15,36,-1,13,35,34,-1,13,14,35,-1,12,34,33,-1,12,13,34,-1,11,33,32,-1,11,12,33,-1,
  10,32,31,-1,10,11,32,-1,9,31,30,-1,9,10,31,-1,8,30,29,-1,8,9,30,-1,7,29,28,-1,7,8,29,-1,
  6,28,27,-1,6,7,28,-1,5,6,27,-1,5,27,26,-1,4,5,26,-1,4,25,24,-1,4,26,25,-1,3,4,24,-1,
  2,24,23,-1,2,3,24,-1,1,2,23,-1,1,23,22,-1,0,22,21,-1,0,1,22,-1]
  normalPerVertex TRUE
  normal DEF NORM_4 Normal { vector [
  -0.70284235 -0.71134565 0,-0.56882521 -0.82245844 0,
  -0.33720409 -0.94143157 0,-0.12621956 -0.99200233 0,
  0.13416835 -0.99095855 0,0.42544038 -0.90498645 0,
  0.64466099 -0.76446858 0,0.82017169 -0.57211747 0,
  0.94007232 -0.34097512 0,0.99623328 -0.086713639 0,
  0.98484668 0.17342728 0,0.90668457 0.42180931 0,
  0.76704657 0.64159143 0,0.57540054 0.81787176 0,
  0.34474067 0.93869797 0,0.090706355 0.99587768 0,
  -0.16947812 0.98553395 0,-0.41817147 0.90836811 0,
  -0.63851156 0.76961223 0,-0.70284235 0.71134565 0,
  -0.70284235 0.71134565 0,-0.70284235 -0.71134565 0,
  -0.63851156 -0.76961223 0,-0.41817147 -0.90836811 0,
  -0.12621956 -0.99200233 0,0.13416835 -0.99095855 0,
  0.34474067 -0.93869797 0,0.57540054 -0.81787176 0,
  0.76704657 -0.64159143 0,0.90668457 -0.42180931 0,
  0.98484668 -0.17342728 0,0.99623328 0.086713639 0,
  0.94007232 0.34097512 0,0.82017169 0.57211747 0,
  0.64466099 0.76446858 0,0.42544038 0.90498645 0,
  0.17737365 0.98414358 0,-0.08271953 0.99657287 0,
  -0.33720409 0.94143157 0,-0.56882521 0.82245844 0] }
}
}
DEF SHAPE_5 Shape {
 appearance USE APP_1
 geometry DEF FACE_5 IndexedFaceSet {
  coord DEF COORD_5 Coordinate { point [
  -0.090551181 -0.45913007 1.1811024,-0.090551181 -0.45913007 1.5748031,
  -0.090551181 0.45913007 1.5748031,-0.090551181 0.45913007 1.1811024] }
 coordIndex [
  3,0,1,-1,3,1,2,-1]
  normalPerVertex TRUE
  normal DEF NORM_5 Normal { vector [
  -1 0 0,-1 0 0,
  -1 0 0,-1 0 0] }
}
}
DEF SHAPE_6 Shape {
 appearance USE APP_1
 geometry DEF FACE_6 IndexedFaceSet {
  coord DEF COORD_6 Coordinate { point [
  -0.090551181 -0.45913007 1.1811024,0.048004668 -0.59602965 1.1811024,
  0.21720714 -0.69251665 1.1811024,0.40558379 -0.74204899 1.1811024,
  0.60036215 -0.74126821 1.1811024,0.78833565 -0.69022726 1.1811024,
  0.95675915 -0.59238686 1.1811024,1.094213 -0.45438089 1.1811024,
  1.1913775 -0.28556655 1.1811024,1.2416646 -0.09738996 1.1811024,
  1.2416646 0.09738996 1.1811024,1.1913775 0.28556655 1.1811024,
  1.094213 0.45438089 1.1811024,0.95675915 0.59238686 1.1811024,
  0.78833565 0.69022726 1.1811024,0.60036215 0.74126821 1.1811024,
  0.40558379 0.74204899 1.1811024,0.21720714 0.69251665 1.1811024,
  0.048004668 0.59602965 1.1811024,-0.090551181 0.45913007 1.1811024,
  -0.078740157 -0.078740157 1.1811024,0.078740157 -0.078740157 1.1811024,
  0.078740157 0.078740157 1.1811024,-0.078740157 0.078740157 1.1811024,
  0.92125984 0.078740157 1.1811024,0.92125984 -0.078740157 1.1811024,
  1.0787402 -0.078740157 1.1811024,1.0787402 0.078740157 1.1811024] }
 coordIndex [
  26,9,8,-1,10,9,26,-1,27,10,26,-1,25,4,3,-1,25,5,4,-1,25,6,5,-1,25,7,6,-1,25,8,7,-1,
  25,26,8,-1,11,10,27,-1,24,11,27,-1,12,11,24,-1,13,12,24,-1,21,1,0,-1,21,2,1,-1,21,3,2,-1,
  21,25,3,-1,14,13,24,-1,22,24,25,-1,22,25,21,-1,20,21,0,-1,15,14,24,-1,16,24,22,-1,16,15,24,-1,
  17,16,22,-1,18,17,22,-1,19,22,23,-1,19,18,22,-1,0,19,23,-1,0,23,20,-1]
  normalPerVertex TRUE
  normal DEF NORM_6 Normal { vector [
  0 0 -1,0 0 -1,
  0 0 -1,0 0 -1,
  0 0 -1,0 0 -1,
  0 0 -1,0 0 -1,
  0 0 -1,0 0 -1,
  0 0 -1,0 0 -1,
  0 0 -1,0 0 -1,
  0 0 -1,0 0 -1,
  0 0 -1,0 0 -1,
  0 0 -1,0 0 -1,
  0 0 -1,0 0 -1,
  0 0 -1,0 0 -1,
  0 0 -1,0 0 -1,
  0 0 -1,0 0 -1] }
}
}
DEF SHAPE_7 Shape {
 appearance DEF APP_2 Appearance {
  material Material {
   ambientIntensity 0.122244
   diffuseColor 0.824 0.81999999 0.78100002
   emissiveColor 0 0 0
   shininess 0.1
   specularColor 0.12 0.12 0.12
   transparency 0
} }
 geometry DEF FACE_7 IndexedFaceSet {
  coord DEF COORD_7 Coordinate { point [
  -0.078740157 -0.078740157 1.1811024,0.078740157 -0.078740157 1.1811024,
  0.078740157 -0.078740157 -0.98425197,-0.078740157 -0.078740157 -0.98425197] }
 coordIndex [
  0,2,1,-1,0,3,2,-1]
  normalPerVertex TRUE
  normal DEF NORM_7 Normal { vector [
  0 -1 0,0 -1 0,
  0 -1 0,0 -1 0] }
}
}
DEF SHAPE_8 Shape {
 appearance USE APP_2
 geometry DEF FACE_8 IndexedFaceSet {
  coord DEF COORD_8 Coordinate { point [
  -0.078740157 0.078740157 1.1811024,-0.078740157 -0.078740157 1.1811024,
  -0.078740157 -0.078740157 -0.98425197,-0.078740157 0.078740157 -0.98425197] }
 coordIndex [
  0,2,1,-1,0,3,2,-1]
  normalPerVertex TRUE
  normal DEF NORM_8 Normal { vector [
  -1 0 0,-1 0 0,
  -1 0 0,-1 0 0] }
}
}
DEF SHAPE_9 Shape {
 appearance USE APP_2
 geometry DEF FACE_9 IndexedFaceSet {
  coord DEF COORD_9 Coordinate { point [
  0.078740157 0.078740157 1.1811024,-0.078740157 0.078740157 1.1811024,
  -0.078740157 0.078740157 -0.98425197,0.078740157 0.078740157 -0.98425197] }
 coordIndex [
  0,2,1,-1,0,3,2,-1]
  normalPerVertex TRUE
  normal DEF NORM_9 Normal { vector [
  0 1 0,0 1 0,
  0 1 0,0 1 0] }
}
}
DEF SHAPE_10 Shape {
 appearance USE APP_2
 geometry DEF FACE_10 IndexedFaceSet {
  coord DEF COORD_10 Coordinate { point [
  0.078740157 -0.078740157 1.1811024,0.078740157 0.078740157 1.1811024,
  0.078740157 0.078740157 -0.98425197,0.078740157 -0.078740157 -0.98425197] }
 coordIndex [
  0,2,1,-1,0,3,2,-1]
  normalPerVertex TRUE
  normal DEF NORM_10 Normal { vector [
  1 0 0,1 0 0,
  1 0 0,1 0 0] }
}
}
DEF SHAPE_11 Shape {
 appearance USE APP_2
 geometry DEF FACE_11 IndexedFaceSet {
  coord DEF COORD_11 Coordinate { point [
  0.92125984 0.078740157 1.1811024,0.92125984 -0.078740157 1.1811024,
  0.92125984 -0.078740157 -0.98425197,0.92125984 0.078740157 -0.98425197] }
 coordIndex [
  0,2,1,-1,0,3,2,-1]
  normalPerVertex TRUE
  normal DEF NORM_11 Normal { vector [
  -1 0 0,-1 0 0,
  -1 0 0,-1 0 0] }
}
}
DEF SHAPE_12 Shape {
 appearance USE APP_2
 geometry DEF FACE_12 IndexedFaceSet {
  coord DEF COORD_12 Coordinate { point [
  1.0787402 0.078740157 1.1811024,0.92125984 0.078740157 1.1811024,
  0.92125984 0.078740157 -0.98425197,1.0787402 0.078740157 -0.98425197] }
 coordIndex [
  0,2,1,-1,0,3,2,-1]
  normalPerVertex TRUE
  normal DEF NORM_12 Normal { vector [
  0 1 0,0 1 0,
  0 1 0,0 1 0] }
}
}
DEF SHAPE_13 Shape {
 appearance USE APP_2
 geometry DEF FACE_13 IndexedFaceSet {
  coord DEF COORD_13 Coordinate { point [
  1.0787402 -0.078740157 1.1811024,1.0787402 0.078740157 1.1811024,
  1.0787402 0.078740157 -0.98425197,1.0787402 -0.078740157 -0.98425197] }
 coordIndex [
  0,2,1,-1,0,3,2,-1]
  normalPerVertex TRUE
  normal DEF NORM_13 Normal { vector [
  1 0 0,1 0 0,
  1 0 0,1 0 0] }
}
}
DEF SHAPE_14 Shape {
 appearance USE APP_2
 geometry DEF FACE_14 IndexedFaceSet {
  coord DEF COORD_14 Coordinate { point [
  0.92125984 -0.078740157 1.1811024,1.0787402 -0.078740157 1.1811024,
  1.0787402 -0.078740157 -0.98425197,0.92125984 -0.078740157 -0.98425197] }
 coordIndex [
  0,2,1,-1,0,3,2,-1]
  normalPerVertex TRUE
  normal DEF NORM_14 Normal { vector [
  0 -1 0,0 -1 0,
  0 -1 0,0 -1 0] }
}
}
DEF SHAPE_15 Shape {
 appearance USE APP_2
 geometry DEF FACE_15 IndexedFaceSet {
  coord DEF COORD_15 Coordinate { point [
  -0.078740157 -0.078740157 -0.98425197,-0.078740157 0.078740157 -0.98425197,
  0.078740157 -0.078740157 -0.98425197,0.078740157 0.078740157 -0.98425197] }
 coordIndex [
  3,0,1,-1,3,2,0,-1]
  normalPerVertex TRUE
  normal DEF NORM_15 Normal { vector [
  0 0 -1,0 0 -1,
  0 0 -1,0 0 -1] }
}
}
DEF SHAPE_16 Shape {
 appearance USE APP_2
 geometry DEF FACE_16 IndexedFaceSet {
  coord DEF COORD_16 Coordinate { point [
  0.92125984 -0.078740157 -0.98425197,0.92125984 0.078740157 -0.98425197,
  1.0787402 -0.078740157 -0.98425197,1.0787402 0.078740157 -0.98425197] }
 coordIndex [
  3,0,1,-1,3,2,0,-1]
  normalPerVertex TRUE
  normal DEF NORM_16 Normal { vector [
  0 0 -1,0 0 -1,
  0 0 -1,0 0 -1] }
}
}
] }
] }
] }
