#VRML V2.0 utf8
DEF TXFM_1 Transform {
  center 0 0 0
  rotation 0 0 1 0
  scale 1 1 1
  scaleOrientation 0 0 1 0
  translation 0 0 0
 children [
DEF TXFM_2 Transform {
  center 0 0 0
  rotation 0 0 1 0
  scale 1 1 1
  scaleOrientation 0 0 1 0
  translation 0 0 0
 children [
DEF TXFM_3 Transform {
  center 0 0 0
  rotation 0 0 1 0
  scale 1 1 1
  scaleOrientation 0 0 1 0
  translation 0 0 0
 children [
DEF SHAPE_1 Shape {
 appearance DEF APP_1 Appearance {
  material Material {
   ambientIntensity 0.17006803
   diffuseColor 0.588 0.588 0.588
   emissiveColor 0 0 0
   shininess 0.1
   specularColor 0.12 0.12 0.12
   transparency 0
} }
 geometry DEF FACE_1 IndexedFaceSet {
  coord DEF COORD_1 Coordinate { point [
  -0.36968504 0.23622047 0.3511811,-0.36904038 0.23059116 0.3511811,
  -0.36686755 0.22534547 0.3511811,-0.36341107 0.2208409 0.3511811,
  -0.3589065 0.21738442 0.3511811,-0.35366081 0.21521159 0.3511811,
  -0.3480315 0.21447047 0.3511811,-0.34240218 0.21521159 0.3511811,
  -0.3371565 0.21738442 0.3511811,-0.33265192 0.2208409 0.3511811,
  -0.32919544 0.22534547 0.3511811,-0.32702261 0.23059116 0.3511811,
  -0.3262815 0.23622047 0.3511811,-0.32702261 0.24184979 0.3511811,
  -0.32919544 0.24709547 0.3511811,-0.33265192 0.25160004 0.3511811,
  -0.3371565 0.25505652 0.3511811,-0.34240218 0.25722936 0.3511811,
  -0.3480315 0.25797047 0.3511811,-0.35366081 0.25722936 0.3511811,
  -0.3589065 0.25505652 0.3511811,-0.36341107 0.25160004 0.3511811,
  -0.36686755 0.24709547 0.3511811,-0.36904038 0.24184979 0.3511811,
  -0.36968504 0.23622047 0.3511811,-0.36968504 0.23622047 0.35,
  -0.36968504 0.23622047 0.35,-0.36904038 0.24184979 0.35,
  -0.36686755 0.24709547 0.35,-0.36341107 0.25160004 0.35,
  -0.3589065 0.25505652 0.35,-0.35366081 0.25722936 0.35,
  -0.3480315 0.25797047 0.35,-0.34240218 0.25722936 0.35,
  -0.3371565 0.25505652 0.35,-0.33265192 0.25160004 0.35,
  -0.32919544 0.24709547 0.35,-0.32702261 0.24184979 0.35,
  -0.3262815 0.23622047 0.35,-0.32702261 0.23059116 0.35,
  -0.32919544 0.22534547 0.35,-0.33265192 0.2208409 0.35,
  -0.3371565 0.21738442 0.35,-0.34240218 0.21521159 0.35,
  -0.3480315 0.21447047 0.35,-0.35366081 0.21521159 0.35,
  -0.3589065 0.21738442 0.35,-0.36341107 0.2208409 0.35,
  -0.36686755 0.22534547 0.35,-0.36904038 0.23059116 0.35] }
 coordIndex [
  1,0,25,-1,1,25,49,-1,2,49,48,-1,2,1,49,-1,3,48,47,-1,3,2,48,-1,4,47,46,-1,4,3,47,-1,
  5,46,45,-1,5,4,46,-1,6,45,44,-1,6,5,45,-1,7,44,43,-1,7,6,44,-1,8,43,42,-1,8,7,43,-1,
  9,42,41,-1,9,8,42,-1,10,41,40,-1,10,9,41,-1,11,40,39,-1,11,10,40,-1,12,11,39,-1,12,39,38,-1,
  13,12,38,-1,13,38,37,-1,14,13,37,-1,14,37,36,-1,15,14,36,-1,15,36,35,-1,16,15,35,-1,16,35,34,-1,
  17,16,34,-1,17,34,33,-1,18,17,33,-1,18,33,32,-1,19,32,31,-1,19,18,32,-1,20,31,30,-1,20,19,31,-1,
  21,30,29,-1,21,20,30,-1,22,29,28,-1,22,21,29,-1,23,28,27,-1,23,22,28,-1,24,27,26,-1,24,23,27,-1]
  normalPerVertex TRUE
  normal DEF NORM_1 Normal { vector [
  0 0 1,-0.9786983 -0.20530376 0,
  -0.88711369 -0.46155098 0,-0.73742784 -0.67542593 0,
  -0.5374875 -0.84327172 0,-0.30091828 -0.95364993 0,
  -0.04384197 -0.99903848 0,0.21622209 -0.9763442 0,
  0.46155098 -0.88711369 0,0.67542593 -0.73742784 0,
  0.84327172 -0.5374875 0,0.95364993 -0.30091828 0,
  0.99903848 -0.04384197 0,0.9763442 0.21622209 0,
  0.88711369 0.46155098 0,0.73742784 0.67542593 0,
  0.5374875 0.84327172 0,0.30091828 0.95364993 0,
  0.04384197 0.99903848 0,-0.21622209 0.9763442 0,
  -0.46155098 0.88711369 0,-0.67542593 0.73742784 0,
  -0.84327172 0.5374875 0,-0.95527603 0.29571557 0,
  0 0 1,0 0 1,
  0 0 1,-0.9786983 0.20530376 0,
  -0.88711369 0.46155098 0,-0.73742784 0.67542593 0,
  -0.5374875 0.84327172 0,-0.30091828 0.95364993 0,
  -0.04384197 0.99903848 0,0.21622209 0.9763442 0,
  0.46155098 0.88711369 0,0.67542593 0.73742784 0,
  0.84327172 0.5374875 0,0.95364993 0.30091828 0,
  0.99903848 0.04384197 0,0.9763442 -0.21622209 0,
  0.88711369 -0.46155098 0,0.73742784 -0.67542593 0,
  0.5374875 -0.84327172 0,0.30091828 -0.95364993 0,
  0.04384197 -0.99903848 0,-0.21622209 -0.9763442 0,
  -0.46155098 -0.88711369 0,-0.67542593 -0.73742784 0,
  -0.84327172 -0.5374875 0,-0.95527603 -0.29571557 0] }
}
}
DEF SHAPE_2 Shape {
 appearance USE APP_1
 geometry DEF FACE_2 IndexedFaceSet {
  coord DEF COORD_2 Coordinate { point [
  -0.36968504 0.23622047 0.35,-0.36904038 0.24184979 0.35,
  -0.36686755 0.24709547 0.35,-0.36341107 0.25160004 0.35,
  -0.3589065 0.25505652 0.35,-0.35366081 0.25722936 0.35,
  -0.3480315 0.25797047 0.35,-0.34240218 0.25722936 0.35,
  -0.3371565 0.25505652 0.35,-0.33265192 0.25160004 0.35,
  -0.32919544 0.24709547 0.35,-0.32702261 0.24184979 0.35,
  -0.3262815 0.23622047 0.35,-0.32702261 0.23059116 0.35,
  -0.32919544 0.22534547 0.35,-0.33265192 0.2208409 0.35,
  -0.3371565 0.21738442 0.35,-0.34240218 0.21521159 0.35,
  -0.3480315 0.21447047 0.35,-0.35366081 0.21521159 0.35,
  -0.3589065 0.21738442 0.35,-0.36341107 0.2208409 0.35,
  -0.36686755 0.22534547 0.35,-0.36904038 0.23059116 0.35] }
 coordIndex [
  3,0,1,-1,3,1,2,-1,3,4,5,-1,3,5,6,-1,3,6,7,-1,3,7,8,-1,3,8,9,-1,3,9,10,-1,
  3,10,11,-1,3,11,12,-1,3,12,13,-1,3,13,14,-1,3,14,15,-1,3,15,16,-1,3,16,17,-1,3,17,18,-1,
  3,18,19,-1,3,19,20,-1,3,20,21,-1,3,21,22,-1,3,22,23,-1,3,23,0,-1]
  normalPerVertex TRUE
  normal DEF NORM_2 Normal { vector [
  0 0 -1,0 0 -1,
  0 0 1,0 0 -1,
  0 0 1,0 0 -1,
  0 0 -1,0 0 -1,
  0 0 -1,0 0 -1,
  0 0 -1,0 0 -1,
  0 0 -1,0 0 -1,
  0 0 -1,0 0 -1,
  0 0 -1,0 0 -1,
  0 0 -1,0 0 -1,
  0 0 -1,0 0 -1,
  0 0 -1,0 0 -1] }
}
}
DEF SHAPE_3 Shape {
 appearance USE APP_1
 geometry DEF FACE_3 IndexedFaceSet {
  coord DEF COORD_3 Coordinate { point [
  -0.36968504 0.23622047 0.3511811,-0.36904038 0.23059116 0.3511811,
  -0.36686755 0.22534547 0.3511811,-0.36341107 0.2208409 0.3511811,
  -0.3589065 0.21738442 0.3511811,-0.35366081 0.21521159 0.3511811,
  -0.3480315 0.21447047 0.3511811,-0.34240218 0.21521159 0.3511811,
  -0.3371565 0.21738442 0.3511811,-0.33265192 0.2208409 0.3511811,
  -0.32919544 0.22534547 0.3511811,-0.32702261 0.23059116 0.3511811,
  -0.3262815 0.23622047 0.3511811,-0.32702261 0.24184979 0.3511811,
  -0.32919544 0.24709547 0.3511811,-0.33265192 0.25160004 0.3511811,
  -0.3371565 0.25505652 0.3511811,-0.34240218 0.25722936 0.3511811,
  -0.3480315 0.25797047 0.3511811,-0.35366081 0.25722936 0.3511811,
  -0.3589065 0.25505652 0.3511811,-0.36341107 0.25160004 0.3511811,
  -0.36686755 0.24709547 0.3511811,-0.36904038 0.24184979 0.3511811] }
 coordIndex [
  21,0,1,-1,21,1,2,-1,21,2,3,-1,21,3,4,-1,21,4,5,-1,21,5,6,-1,21,6,7,-1,21,7,8,-1,
  21,8,9,-1,21,9,10,-1,21,10,11,-1,21,11,12,-1,21,12,13,-1,21,13,14,-1,21,14,15,-1,21,15,16,-1,
  21,16,17,-1,21,17,18,-1,21,18,19,-1,21,19,20,-1,21,22,23,-1,21,23,0,-1]
  normalPerVertex TRUE
  normal DEF NORM_3 Normal { vector [
  0 0 1,0 0 1,
  0 0 1,0 0 1,
  0 0 1,0 0 1,
  0 0 1,0 0 1,
  0 0 1,0 0 1,
  0 0 1,0 0 1,
  0 0 1,0 0 1,
  0 0 1,0 0 1,
  0 0 1,0 0 1,
  0 0 1,0 0 1,
  0 0 1,0 0 1,
  0 0 1,0 0 1] }
}
}
] }
DEF TXFM_4 Transform {
  center 0 0 0
  rotation 0 0 1 0
  scale 1 1 1
  scaleOrientation 0 0 1 0
  translation 0 0 0
 children [
DEF SHAPE_4 Shape {
 appearance DEF APP_2 Appearance {
  material Material {
   ambientIntensity 0.51020408
   diffuseColor 0.19600001 0.19600001 0.19600001
   emissiveColor 0 0 0
   shininess 0.1
   specularColor 0.12 0.12 0.12
   transparency 0
} }
 geometry DEF FACE_4 IndexedFaceSet {
  coord DEF COORD_4 Coordinate { point [
  0.43503937 -0.43503937 0.02007874,-0.43503937 -0.43503937 0.02007874,
  0.43503937 -0.43503937 0.35,-0.43503937 -0.43503937 0.35] }
 coordIndex [
  3,1,0,-1,3,0,2,-1]
  normalPerVertex TRUE
  normal DEF NORM_4 Normal { vector [
  0 -1 0,0 -1 0,
  0 -1 0,0 -1 0] }
}
}
DEF SHAPE_5 Shape {
 appearance USE APP_2
 geometry DEF FACE_5 IndexedFaceSet {
  coord DEF COORD_5 Coordinate { point [
  0.43503937 0.43503937 0.02007874,0.43503937 -0.43503937 0.02007874,
  0.43503937 0.43503937 0.35,0.43503937 -0.43503937 0.35] }
 coordIndex [
  3,1,0,-1,3,0,2,-1]
  normalPerVertex TRUE
  normal DEF NORM_5 Normal { vector [
  1 0 0,1 0 0,
  1 0 0,1 0 0] }
}
}
DEF SHAPE_6 Shape {
 appearance USE APP_2
 geometry DEF FACE_6 IndexedFaceSet {
  coord DEF COORD_6 Coordinate { point [
  -0.43503937 0.43503937 0.02007874,0.43503937 0.43503937 0.02007874,
  -0.43503937 0.43503937 0.35,0.43503937 0.43503937 0.35] }
 coordIndex [
  3,1,0,-1,3,0,2,-1]
  normalPerVertex TRUE
  normal DEF NORM_6 Normal { vector [
  0 1 0,0 1 0,
  0 1 0,0 1 0] }
}
}
DEF SHAPE_7 Shape {
 appearance USE APP_2
 geometry DEF FACE_7 IndexedFaceSet {
  coord DEF COORD_7 Coordinate { point [
  -0.43503937 -0.43503937 0.02007874,-0.43503937 0.43503937 0.02007874,
  -0.43503937 -0.43503937 0.35,-0.43503937 0.43503937 0.35] }
 coordIndex [
  3,1,0,-1,3,0,2,-1]
  normalPerVertex TRUE
  normal DEF NORM_7 Normal { vector [
  -1 0 0,-1 0 0,
  -1 0 0,-1 0 0] }
}
}
DEF SHAPE_8 Shape {
 appearance USE APP_2
 geometry DEF FACE_8 IndexedFaceSet {
  coord DEF COORD_8 Coordinate { point [
  -0.43503937 0.43503937 0.02007874,0.43503937 0.43503937 0.02007874,
  0.43503937 -0.43503937 0.02007874,-0.43503937 -0.43503937 0.02007874] }
 coordIndex [
  1,2,3,-1,1,3,0,-1]
  normalPerVertex TRUE
  normal DEF NORM_8 Normal { vector [
  0 0 -1,0 0 -1,
  0 0 -1,0 0 -1] }
}
}
DEF SHAPE_9 Shape {
 appearance USE APP_2
 geometry DEF FACE_9 IndexedFaceSet {
  coord DEF COORD_9 Coordinate { point [
  -0.43503937 -0.43503937 0.35,0.43503937 -0.43503937 0.35,
  0.43503937 0.43503937 0.35,-0.43503937 0.43503937 0.35] }
 coordIndex [
  3,0,1,-1,3,1,2,-1]
  normalPerVertex TRUE
  normal DEF NORM_9 Normal { vector [
  0 0 1,0 0 1,
  0 0 1,0 0 1] }
}
}
] }
DEF TXFM_5 Transform {
  center 0 0 0
  rotation 0 0 1 0
  scale 1 1 1
  scaleOrientation 0 0 1 0
  translation 0 0 0
 children [
DEF SHAPE_10 Shape {
 appearance DEF APP_3 Appearance {
  material Material {
   ambientIntensity 0.13793105
   diffuseColor 0.72499996 0.72499996 0.72499996
   emissiveColor 0 0 0
   shininess 0.1
   specularColor 0.12 0.12 0.12
   transparency 0
} }
 geometry DEF FACE_10 IndexedFaceSet {
  coord DEF COORD_10 Coordinate { point [
  0.39488189 0.10629921 0,0.07480315 0.10629921 0,
  0.39488189 0.10629921 0.02007874,0.07480315 0.10629921 0.02007874] }
 coordIndex [
  3,1,0,-1,3,0,2,-1]
  normalPerVertex TRUE
  normal DEF NORM_10 Normal { vector [
  0 -1 0,0 -1 0,
  0 -1 0,0 -1 0] }
}
}
DEF SHAPE_11 Shape {
 appearance USE APP_3
 geometry DEF FACE_11 IndexedFaceSet {
  coord DEF COORD_11 Coordinate { point [
  0.39488189 0.36614173 0,0.39488189 0.10629921 0,
  0.39488189 0.36614173 0.02007874,0.39488189 0.10629921 0.02007874] }
 coordIndex [
  3,1,0,-1,3,0,2,-1]
  normalPerVertex TRUE
  normal DEF NORM_11 Normal { vector [
  1 0 0,1 0 0,
  1 0 0,1 0 0] }
}
}
DEF SHAPE_12 Shape {
 appearance USE APP_3
 geometry DEF FACE_12 IndexedFaceSet {
  coord DEF COORD_12 Coordinate { point [
  0.07480315 0.36614173 0,0.39488189 0.36614173 0,
  0.07480315 0.36614173 0.02007874,0.39488189 0.36614173 0.02007874] }
 coordIndex [
  3,1,0,-1,3,0,2,-1]
  normalPerVertex TRUE
  normal DEF NORM_12 Normal { vector [
  0 1 0,0 1 0,
  0 1 0,0 1 0] }
}
}
DEF SHAPE_13 Shape {
 appearance USE APP_3
 geometry DEF FACE_13 IndexedFaceSet {
  coord DEF COORD_13 Coordinate { point [
  0.07480315 0.10629921 0,0.07480315 0.36614173 0,
  0.07480315 0.10629921 0.02007874,0.07480315 0.36614173 0.02007874] }
 coordIndex [
  3,1,0,-1,3,0,2,-1]
  normalPerVertex TRUE
  normal DEF NORM_13 Normal { vector [
  -1 0 0,-1 0 0,
  -1 0 0,-1 0 0] }
}
}
DEF SHAPE_14 Shape {
 appearance USE APP_3
 geometry DEF FACE_14 IndexedFaceSet {
  coord DEF COORD_14 Coordinate { point [
  0.07480315 0.36614173 0,0.39488189 0.36614173 0,
  0.39488189 0.10629921 0,0.07480315 0.10629921 0] }
 coordIndex [
  1,2,3,-1,1,3,0,-1]
  normalPerVertex TRUE
  normal DEF NORM_14 Normal { vector [
  0 0 -1,0 0 -1,
  0 0 -1,0 0 -1] }
}
}
DEF SHAPE_15 Shape {
 appearance USE APP_3
 geometry DEF FACE_15 IndexedFaceSet {
  coord DEF COORD_15 Coordinate { point [
  0.07480315 0.10629921 0.02007874,0.39488189 0.10629921 0.02007874,
  0.39488189 0.36614173 0.02007874,0.07480315 0.36614173 0.02007874] }
 coordIndex [
  3,0,1,-1,3,1,2,-1]
  normalPerVertex TRUE
  normal DEF NORM_15 Normal { vector [
  0 0 1,0 0 1,
  0 0 1,0 0 1] }
}
}
] }
DEF TXFM_6 Transform {
  center 0 0 0
  rotation 0 0 1 0
  scale 1 1 1
  scaleOrientation 0 0 1 0
  translation 0 0 0
 children [
DEF SHAPE_16 Shape {
 appearance USE APP_3
 geometry DEF FACE_16 IndexedFaceSet {
  coord DEF COORD_16 Coordinate { point [
  0.39488189 -0.36614173 0,0.07480315 -0.36614173 0,
  0.39488189 -0.36614173 0.02007874,0.07480315 -0.36614173 0.02007874] }
 coordIndex [
  3,1,0,-1,3,0,2,-1]
  normalPerVertex TRUE
  normal DEF NORM_16 Normal { vector [
  0 -1 0,0 -1 0,
  0 -1 0,0 -1 0] }
}
}
DEF SHAPE_17 Shape {
 appearance USE APP_3
 geometry DEF FACE_17 IndexedFaceSet {
  coord DEF COORD_17 Coordinate { point [
  0.39488189 -0.10629921 0,0.39488189 -0.36614173 0,
  0.39488189 -0.10629921 0.02007874,0.39488189 -0.36614173 0.02007874] }
 coordIndex [
  3,1,0,-1,3,0,2,-1]
  normalPerVertex TRUE
  normal DEF NORM_17 Normal { vector [
  1 0 0,1 0 0,
  1 0 0,1 0 0] }
}
}
DEF SHAPE_18 Shape {
 appearance USE APP_3
 geometry DEF FACE_18 IndexedFaceSet {
  coord DEF COORD_18 Coordinate { point [
  0.07480315 -0.10629921 0,0.39488189 -0.10629921 0,
  0.07480315 -0.10629921 0.02007874,0.39488189 -0.10629921 0.02007874] }
 coordIndex [
  3,1,0,-1,3,0,2,-1]
  normalPerVertex TRUE
  normal DEF NORM_18 Normal { vector [
  0 1 0,0 1 0,
  0 1 0,0 1 0] }
}
}
DEF SHAPE_19 Shape {
 appearance USE APP_3
 geometry DEF FACE_19 IndexedFaceSet {
  coord DEF COORD_19 Coordinate { point [
  0.07480315 -0.36614173 0,0.07480315 -0.10629921 0,
  0.07480315 -0.36614173 0.02007874,0.07480315 -0.10629921 0.02007874] }
 coordIndex [
  3,1,0,-1,3,0,2,-1]
  normalPerVertex TRUE
  normal DEF NORM_19 Normal { vector [
  -1 0 0,-1 0 0,
  -1 0 0,-1 0 0] }
}
}
DEF SHAPE_20 Shape {
 appearance USE APP_3
 geometry DEF FACE_20 IndexedFaceSet {
  coord DEF COORD_20 Coordinate { point [
  0.07480315 -0.10629921 0,0.39488189 -0.10629921 0,
  0.39488189 -0.36614173 0,0.07480315 -0.36614173 0] }
 coordIndex [
  1,2,3,-1,1,3,0,-1]
  normalPerVertex TRUE
  normal DEF NORM_20 Normal { vector [
  0 0 -1,0 0 -1,
  0 0 -1,0 0 -1] }
}
}
DEF SHAPE_21 Shape {
 appearance USE APP_3
 geometry DEF FACE_21 IndexedFaceSet {
  coord DEF COORD_21 Coordinate { point [
  0.07480315 -0.36614173 0.02007874,0.39488189 -0.36614173 0.02007874,
  0.39488189 -0.10629921 0.02007874,0.07480315 -0.10629921 0.02007874] }
 coordIndex [
  3,0,1,-1,3,1,2,-1]
  normalPerVertex TRUE
  normal DEF NORM_21 Normal { vector [
  0 0 1,0 0 1,
  0 0 1,0 0 1] }
}
}
] }
DEF TXFM_7 Transform {
  center 0 0 0
  rotation 0 0 1 0
  scale 1 1 1
  scaleOrientation 0 0 1 0
  translation 0 0 0
 children [
DEF SHAPE_22 Shape {
 appearance USE APP_3
 geometry DEF FACE_22 IndexedFaceSet {
  coord DEF COORD_22 Coordinate { point [
  -0.07480315 -0.36614173 0,-0.39488189 -0.36614173 0,
  -0.07480315 -0.36614173 0.02007874,-0.39488189 -0.36614173 0.02007874] }
 coordIndex [
  3,1,0,-1,3,0,2,-1]
  normalPerVertex TRUE
  normal DEF NORM_22 Normal { vector [
  0 -1 0,0 -1 0,
  0 -1 0,0 -1 0] }
}
}
DEF SHAPE_23 Shape {
 appearance USE APP_3
 geometry DEF FACE_23 IndexedFaceSet {
  coord DEF COORD_23 Coordinate { point [
  -0.07480315 -0.10629921 0,-0.07480315 -0.36614173 0,
  -0.07480315 -0.10629921 0.02007874,-0.07480315 -0.36614173 0.02007874] }
 coordIndex [
  3,1,0,-1,3,0,2,-1]
  normalPerVertex TRUE
  normal DEF NORM_23 Normal { vector [
  1 0 0,1 0 0,
  1 0 0,1 0 0] }
}
}
DEF SHAPE_24 Shape {
 appearance USE APP_3
 geometry DEF FACE_24 IndexedFaceSet {
  coord DEF COORD_24 Coordinate { point [
  -0.39488189 -0.10629921 0,-0.07480315 -0.10629921 0,
  -0.39488189 -0.10629921 0.02007874,-0.07480315 -0.10629921 0.02007874] }
 coordIndex [
  3,1,0,-1,3,0,2,-1]
  normalPerVertex TRUE
  normal DEF NORM_24 Normal { vector [
  0 1 0,0 1 0,
  0 1 0,0 1 0] }
}
}
DEF SHAPE_25 Shape {
 appearance USE APP_3
 geometry DEF FACE_25 IndexedFaceSet {
  coord DEF COORD_25 Coordinate { point [
  -0.39488189 -0.36614173 0,-0.39488189 -0.10629921 0,
  -0.39488189 -0.36614173 0.02007874,-0.39488189 -0.10629921 0.02007874] }
 coordIndex [
  3,1,0,-1,3,0,2,-1]
  normalPerVertex TRUE
  normal DEF NORM_25 Normal { vector [
  -1 0 0,-1 0 0,
  -1 0 0,-1 0 0] }
}
}
DEF SHAPE_26 Shape {
 appearance USE APP_3
 geometry DEF FACE_26 IndexedFaceSet {
  coord DEF COORD_26 Coordinate { point [
  -0.39488189 -0.10629921 0,-0.07480315 -0.10629921 0,
  -0.07480315 -0.36614173 0,-0.39488189 -0.36614173 0] }
 coordIndex [
  1,2,3,-1,1,3,0,-1]
  normalPerVertex TRUE
  normal DEF NORM_26 Normal { vector [
  0 0 -1,0 0 -1,
  0 0 -1,0 0 -1] }
}
}
DEF SHAPE_27 Shape {
 appearance USE APP_3
 geometry DEF FACE_27 IndexedFaceSet {
  coord DEF COORD_27 Coordinate { point [
  -0.39488189 -0.36614173 0.02007874,-0.07480315 -0.36614173 0.02007874,
  -0.07480315 -0.10629921 0.02007874,-0.39488189 -0.10629921 0.02007874] }
 coordIndex [
  3,0,1,-1,3,1,2,-1]
  normalPerVertex TRUE
  normal DEF NORM_27 Normal { vector [
  0 0 1,0 0 1,
  0 0 1,0 0 1] }
}
}
] }
DEF TXFM_8 Transform {
  center 0 0 0
  rotation 0 0 1 0
  scale 1 1 1
  scaleOrientation 0 0 1 0
  translation 0 0 0
 children [
DEF SHAPE_28 Shape {
 appearance USE APP_3
 geometry DEF FACE_28 IndexedFaceSet {
  coord DEF COORD_28 Coordinate { point [
  -0.07480315 0.10629921 0,-0.39488189 0.10629921 0,
  -0.07480315 0.10629921 0.02007874,-0.39488189 0.10629921 0.02007874] }
 coordIndex [
  3,1,0,-1,3,0,2,-1]
  normalPerVertex TRUE
  normal DEF NORM_28 Normal { vector [
  0 -1 0,0 -1 0,
  0 -1 0,0 -1 0] }
}
}
DEF SHAPE_29 Shape {
 appearance USE APP_3
 geometry DEF FACE_29 IndexedFaceSet {
  coord DEF COORD_29 Coordinate { point [
  -0.07480315 0.36614173 0,-0.07480315 0.10629921 0,
  -0.07480315 0.36614173 0.02007874,-0.07480315 0.10629921 0.02007874] }
 coordIndex [
  3,1,0,-1,3,0,2,-1]
  normalPerVertex TRUE
  normal DEF NORM_29 Normal { vector [
  1 0 0,1 0 0,
  1 0 0,1 0 0] }
}
}
DEF SHAPE_30 Shape {
 appearance USE APP_3
 geometry DEF FACE_30 IndexedFaceSet {
  coord DEF COORD_30 Coordinate { point [
  -0.39488189 0.36614173 0,-0.07480315 0.36614173 0,
  -0.39488189 0.36614173 0.02007874,-0.07480315 0.36614173 0.02007874] }
 coordIndex [
  3,1,0,-1,3,0,2,-1]
  normalPerVertex TRUE
  normal DEF NORM_30 Normal { vector [
  0 1 0,0 1 0,
  0 1 0,0 1 0] }
}
}
DEF SHAPE_31 Shape {
 appearance USE APP_3
 geometry DEF FACE_31 IndexedFaceSet {
  coord DEF COORD_31 Coordinate { point [
  -0.39488189 0.10629921 0,-0.39488189 0.36614173 0,
  -0.39488189 0.10629921 0.02007874,-0.39488189 0.36614173 0.02007874] }
 coordIndex [
  3,1,0,-1,3,0,2,-1]
  normalPerVertex TRUE
  normal DEF NORM_31 Normal { vector [
  -1 0 0,-1 0 0,
  -1 0 0,-1 0 0] }
}
}
DEF SHAPE_32 Shape {
 appearance USE APP_3
 geometry DEF FACE_32 IndexedFaceSet {
  coord DEF COORD_32 Coordinate { point [
  -0.39488189 0.36614173 0,-0.07480315 0.36614173 0,
  -0.07480315 0.10629921 0,-0.39488189 0.10629921 0] }
 coordIndex [
  1,2,3,-1,1,3,0,-1]
  normalPerVertex TRUE
  normal DEF NORM_32 Normal { vector [
  0 0 -1,0 0 -1,
  0 0 -1,0 0 -1] }
}
}
DEF SHAPE_33 Shape {
 appearance USE APP_3
 geometry DEF FACE_33 IndexedFaceSet {
  coord DEF COORD_33 Coordinate { point [
  -0.39488189 0.10629921 0.02007874,-0.07480315 0.10629921 0.02007874,
  -0.07480315 0.36614173 0.02007874,-0.39488189 0.36614173 0.02007874] }
 coordIndex [
  3,0,1,-1,3,1,2,-1]
  normalPerVertex TRUE
  normal DEF NORM_33 Normal { vector [
  0 0 1,0 0 1,
  0 0 1,0 0 1] }
}
}
] }
] }
] }
