#VRML V2.0 utf8
DEF TXFM_1 Transform {
  center 0 0 0
  rotation 0 0 1 0
  scale 1 1 1
  scaleOrientation 0 0 1 0
  translation 0 0 0
 children [
DEF TXFM_2 Transform {
  center 0 0 0
  rotation 0 0 1 0
  scale 1 1 1
  scaleOrientation 0 0 1 0
  translation 0 0 0
 children [
DEF TXFM_3 Transform {
  center 0 0 0
  rotation 0 0 1 0
  scale 1 1 1
  scaleOrientation 0 0 1 0
  translation 0 0 0
 children [
DEF SHAPE_1 Shape {
 appearance DEF APP_1 Appearance {
  material Material {
   ambientIntensity 0.19921874
   diffuseColor 0.50196081 0.50196081 0.50196081
   emissiveColor 0 0 0
   shininess 0.1
   specularColor 0.12 0.12 0.12
   transparency 0
} }
 geometry DEF FACE_1 IndexedFaceSet {
  coord DEF COORD_1 Coordinate { point [
  0 2.0242641 -0.42426407,-0.10980762 2.0242641 -0.40980762,
  -0.21213203 2.0242641 -0.36742346,-0.3 2.0242641 -0.3,
  -0.36742346 2.0242641 -0.21213203,-0.40980762 2.0242641 -0.10980762,
  -0.42426407 2.0242641 0,-0.40980762 2.0242641 0.10980762,
  -0.36742346 2.0242641 0.21213203,-0.3 2.0242641 0.3,
  -0.21213203 2.0242641 0.36742346,-0.10980762 2.0242641 0.40980762,
  0 2.0242641 0.42426407,0 2.0988818 0.33334214,
  0 2.1543277 0.22961006,0 2.1884712 0.11705419,
  0 2.2 0,0 2.0988818 -0.33334214,
  0 2.1543277 -0.22961006,0 2.1884712 -0.11705419,
  -0.15529143 2.0688702 0.34065417,-0.15529143 2.15119 0.1790925,
  -0.3 2.0629806 0.23590038,-0.15529143 2.1795555 0,
  -0.3 2.1132179 0.081285732,-0.15529143 2.15119 -0.1790925,
  -0.3 2.1132179 -0.081285732,-0.15529143 2.0688702 -0.34065417,
  -0.3 2.0629806 -0.23590038] }
 coordIndex [
  11,12,13,-1,1,17,0,-1,20,9,10,-1,20,10,11,-1,20,13,14,-1,20,11,13,-1,21,14,15,-1,21,20,14,-1,
  22,8,9,-1,22,20,21,-1,22,9,20,-1,23,15,16,-1,23,16,19,-1,23,21,15,-1,24,6,7,-1,24,7,8,-1,
  24,8,22,-1,24,22,21,-1,24,21,23,-1,25,19,18,-1,25,23,19,-1,26,4,5,-1,26,5,6,-1,26,24,23,-1,
  26,6,24,-1,26,23,25,-1,27,1,2,-1,27,2,3,-1,27,18,17,-1,27,17,1,-1,27,25,18,-1,28,3,4,-1,
  28,4,26,-1,28,25,27,-1,28,27,3,-1,28,26,25,-1]
  normalPerVertex TRUE
  normal DEF NORM_1 Normal { vector [
  -0.08322968 0.77032841 -0.63219219,-0.13902146 0.77203552 -0.62018884,
  -0.32697696 0.75653439 -0.5663407,-0.42330509 0.77230785 -0.47365956,
  -0.56304038 0.77776895 -0.27939399,-0.59600771 0.7869376 -0.15969978,
  -0.60159085 0.79880439 0,-0.59600771 0.7869376 0.15969978,
  -0.56304038 0.77776895 0.27939399,-0.42330509 0.77230785 0.47365956,
  -0.32697696 0.75653439 0.5663407,-0.13902146 0.77203552 0.62018884,
  -0.08322968 0.77032841 0.63219219,-0.12251339 0.82250145 0.55541142,
  -0.14506169 0.90059404 0.40974075,-0.14403281 0.97372479 0.17639329,
  -0.13052619 0.99144486 0,-0.12251339 0.82250145 -0.55541142,
  -0.14506169 0.90059404 -0.40974075,-0.14403281 0.97372479 -0.17639329,
  -0.24440447 0.8393447 0.48555837,-0.26847295 0.91685322 0.29546986,
  -0.42078383 0.82998227 0.36615626,-0.25729416 0.96633313 0,
  -0.48590255 0.86361967 0.13438666,-0.26847295 0.91685322 -0.29546986,
  -0.48590255 0.86361967 -0.13438666,-0.24440447 0.8393447 -0.48555837,
  -0.42078383 0.82998227 -0.36615626] }
}
}
DEF SHAPE_2 Shape {
 appearance USE APP_1
 geometry DEF FACE_2 IndexedFaceSet {
  coord DEF COORD_2 Coordinate { point [
  0 2.0242641 0.42426407,0.10980762 2.0242641 0.40980762,
  0.21213203 2.0242641 0.36742346,0.3 2.0242641 0.3,
  0.36742346 2.0242641 0.21213203,0.40980762 2.0242641 0.10980762,
  0.42426407 2.0242641 0,0.40980762 2.0242641 -0.10980762,
  0.36742346 2.0242641 -0.21213203,0.3 2.0242641 -0.3,
  0.21213203 2.0242641 -0.36742346,0.10980762 2.0242641 -0.40980762,
  0 2.0242641 -0.42426407,0 1.6163961 0.83213203,
  0.21537162 1.6163961 0.80377782,0.41606602 1.6163961 0.72064748,
  0.5884062 1.6163961 0.5884062,0.72064748 1.6163961 0.41606602,
  0.80377782 1.6163961 0.21537162,0.83213203 1.6163961 0,
  0.80377782 1.6163961 -0.21537162,0.72064748 1.6163961 -0.41606602,
  0.5884062 1.6163961 -0.5884062,0.41606602 1.6163961 -0.72064748,
  0.21537162 1.6163961 -0.80377782,0 1.6163961 -0.83213203,
  0.27256492 1.8203301 -0.56598689,0.49114501 1.8203301 -0.39167508,
  0.61244781 1.8203301 -0.13978722,0.61244781 1.8203301 0.13978722,
  0.49114501 1.8203301 0.39167508,0.27256492 1.8203301 0.56598689] }
 coordIndex [
  26,10,9,-1,26,11,10,-1,26,12,11,-1,26,22,23,-1,26,23,24,-1,26,24,25,-1,26,25,12,-1,27,9,8,-1,
  27,21,22,-1,27,22,26,-1,27,26,9,-1,28,7,6,-1,28,8,7,-1,28,19,20,-1,28,20,21,-1,28,27,8,-1,
  28,21,27,-1,29,5,4,-1,29,6,5,-1,29,17,18,-1,29,18,19,-1,29,19,28,-1,29,28,6,-1,30,4,3,-1,
  30,16,17,-1,30,29,4,-1,30,17,29,-1,31,1,0,-1,31,2,1,-1,31,3,2,-1,31,0,13,-1,31,13,14,-1,
  31,14,15,-1,31,15,16,-1,31,16,30,-1,31,30,3,-1]
  normalPerVertex TRUE
  normal DEF NORM_2 Normal { vector [
  0.14986092 0.69143122 0.70672807,0.18799084 0.68733471 0.70159136,
  0.35507931 0.70404172 0.6150154,0.47640436 0.69355491 0.54038918,
  0.63847297 0.69350044 0.33378048,0.68374874 0.70634396 0.18320992,
  0.72049795 0.69345707 0,0.68374874 0.70634396 -0.18320992,
  0.63847297 0.69350044 -0.33378048,0.47640436 0.69355491 -0.54038918,
  0.35507931 0.70404172 -0.6150154,0.18799084 0.68733471 -0.70159136,
  0.14986092 0.69143122 -0.70672807,0.13814038 0.71278481 0.68764457,
  0.1781662 0.72534896 0.66492533,0.35203403 0.7101325 0.60974083,
  0.47133944 0.71603587 0.51490946,0.61510469 0.71542303 0.33138514,
  0.68227746 0.70786714 0.18281569,0.69919403 0.71493196 0,
  0.68227746 0.70786714 -0.18281569,0.61510469 0.71542303 -0.33138514,
  0.47133944 0.71603587 -0.51490946,0.35203403 0.7101325 -0.60974083,
  0.1781662 0.72534896 -0.66492533,0.13814038 0.71278481 -0.68764457,
  0.28708723 0.71401701 -0.63856137,0.55133777 0.71141669 -0.43579004,
  0.68176108 0.71257109 -0.16566309,0.68176108 0.71257109 0.16566309,
  0.55133777 0.71141669 0.43579004,0.28708723 0.71401701 0.63856137] }
}
}
DEF SHAPE_3 Shape {
 appearance USE APP_1
 geometry DEF FACE_3 IndexedFaceSet {
  coord DEF COORD_3 Coordinate { point [
  0 1.4042641 0.92,0.23811352 1.4042641 0.88865176,
  0.46 1.4042641 0.79674337,0.65053824 1.4042641 0.65053824,
  0.79674337 1.4042641 0.46,0.88865176 1.4042641 0.23811352,
  0.92 1.4042641 0,0.88865176 1.4042641 -0.23811352,
  0.79674337 1.4042641 -0.46,0.65053824 1.4042641 -0.65053824,
  0.46 1.4042641 -0.79674337,0.23811352 1.4042641 -0.88865176,
  0 1.4042641 -0.92,0 1.4819098 -0.90977775,
  0 1.5542641 -0.87980762,0 1.6163961 -0.83213203,
  0 1.6163961 0.83213203,0.21537162 1.6163961 0.80377782,
  0.41606602 1.6163961 0.72064748,0.5884062 1.6163961 0.5884062,
  0.72064748 1.6163961 0.41606602,0.80377782 1.6163961 0.21537162,
  0.83213203 1.6163961 0,0.80377782 1.6163961 -0.21537162,
  0.72064748 1.6163961 -0.41606602,0.5884062 1.6163961 -0.5884062,
  0.41606602 1.6163961 -0.72064748,0.21537162 1.6163961 -0.80377782,
  0 1.4819098 0.90977775,0 1.5542641 0.87980762,
  0.23546781 1.4819098 0.87877782,0.22771097 1.5542641 0.8498289,
  0.45488887 1.4819098 0.78789064,0.43990381 1.5542641 0.76193575,
  0.64331001 1.4819098 0.64331001,0.62211794 1.5542641 0.62211794,
  0.78789064 1.4819098 0.45488887,0.76193575 1.5542641 0.43990381,
  0.87877782 1.4819098 0.23546781,0.8498289 1.5542641 0.22771097,
  0.90977775 1.4819098 0,0.87980762 1.5542641 0,
  0.87877782 1.4819098 -0.23546781,0.8498289 1.5542641 -0.22771097,
  0.78789064 1.4819098 -0.45488887,0.76193575 1.5542641 -0.43990381,
  0.64331001 1.4819098 -0.64331001,0.62211794 1.5542641 -0.62211794,
  0.45488887 1.4819098 -0.78789064,0.43990381 1.5542641 -0.76193575,
  0.23546781 1.4819098 -0.87877782,0.22771097 1.5542641 -0.8498289] }
 coordIndex [
  30,0,1,-1,30,28,0,-1,31,17,16,-1,31,29,28,-1,31,16,29,-1,31,28,30,-1,32,1,2,-1,32,30,1,-1,
  33,18,17,-1,33,31,30,-1,33,17,31,-1,33,30,32,-1,34,2,3,-1,34,32,2,-1,35,19,18,-1,35,33,32,-1,
  35,18,33,-1,35,32,34,-1,36,3,4,-1,36,34,3,-1,37,20,19,-1,37,34,36,-1,37,35,34,-1,37,19,35,-1,
  38,4,5,-1,38,36,4,-1,39,21,20,-1,39,36,38,-1,39,37,36,-1,39,20,37,-1,40,5,6,-1,40,38,5,-1,
  41,22,21,-1,41,39,38,-1,41,21,39,-1,41,38,40,-1,42,6,7,-1,42,7,8,-1,42,41,40,-1,42,40,6,-1,
  43,23,22,-1,43,22,41,-1,43,41,42,-1,44,8,9,-1,44,42,8,-1,45,42,44,-1,45,24,23,-1,45,23,43,-1,
  45,43,42,-1,46,9,10,-1,46,44,9,-1,47,44,46,-1,47,25,24,-1,47,26,25,-1,47,24,45,-1,47,45,44,-1,
  48,46,10,-1,49,46,48,-1,49,47,46,-1,49,26,47,-1,50,10,11,-1,50,11,12,-1,50,12,13,-1,50,48,10,-1,
  51,13,14,-1,51,14,15,-1,51,26,49,-1,51,48,50,-1,51,27,26,-1,51,15,27,-1,51,49,48,-1,51,50,13,-1]
  normalPerVertex TRUE
  normal DEF NORM_3 Normal { vector [
  0.12942831 0.12942831 0.9831056,0.29804077 0.13040465 0.94560368,
  0.53262552 0.13040465 0.83624439,0.73091272 0.13040465 0.66989643,
  0.87938943 0.13040465 0.45789613,0.9679372 0.13040465 0.21469097,
  0.99052165 0.13040465 -0.043145032,0.9576622 0.13052619 -0.25660481,
  0.87938943 0.13040465 -0.45789613,0.73091272 0.13040465 -0.66989643,
  0.49572243 0.13052619 -0.85861644,0.25660481 0.13052619 -0.9576622,
  0.12942831 0.12942831 -0.9831056,0.12461 0.2976524 -0.94650695,
  0.1132805 0.49678152 -0.86045084,0.10388185 0.60546781 -0.78906102,
  0.10388185 0.60546781 0.78906102,0.24006815 0.60836469 0.75647847,
  0.42767906 0.60836469 0.66856789,0.58614436 0.60836469 0.5350955,
  0.70466488 0.60836469 0.36515724,0.77516365 0.60836469 0.17033412,
  0.7928363 0.60836469 -0.036096991,0.75647847 0.60836469 -0.24006815,
  0.66856789 0.60836469 -0.42767906,0.56098553 0.60876143 -0.56098553,
  0.39667667 0.60876143 -0.68706415,0.20533495 0.60876143 -0.76632048,
  0.12461 0.2976524 0.94650695,0.1132805 0.49678152 0.86045084,
  0.24772274 0.25787843 0.93388016,0.1876741 0.49795932 0.84664925,
  0.48098776 0.25787843 0.83794361,0.40040821 0.49795932 0.76922674,
  0.68147427 0.25787843 0.68490258,0.58585516 0.49795932 0.63938271,
  0.83551942 0.25787843 0.48518657,0.73137705 0.49795932 0.4659658,
  0.93262531 0.25787843 0.2524059,0.8270568 0.49795932 0.26079409,
  0.97211592 0.23299325 0.026547918,0.87627561 0.48160085 0.014201346,
  0.9333772 0.25740661 -0.25009767,0.82914027 0.52153247 -0.20132137,
  0.81495451 0.25765081 -0.51910039,0.76922674 0.49795932 -0.40040821,
  0.65283254 0.25765081 -0.71233822,0.61937504 0.5139631 -0.5934783,
  0.45867926 0.28340376 -0.84219692,0.46128251 0.47625465 -0.74859866,
  0.25271475 0.21590295 -0.9431443,0.22452071 0.49746963 -0.83792268] }
}
}
DEF SHAPE_4 Shape {
 appearance USE APP_1
 geometry DEF FACE_4 IndexedFaceSet {
  coord DEF COORD_4 Coordinate { point [
  0 0 0.92,0.23811352 0 0.88865176,
  0.46 0 0.79674337,0.65053824 0 0.65053824,
  0.79674337 0 0.46,0.88865176 0 0.23811352,
  0.92 0 0,0.88865176 0 -0.23811352,
  0.79674337 0 -0.46,0.65053824 0 -0.65053824,
  0.46 0 -0.79674337,0.23811352 0 -0.88865176,
  0 0 -0.92,0 1.4042641 -0.92,
  0 1.4042641 0.92,0.23811352 1.4042641 0.88865176,
  0.46 1.4042641 0.79674337,0.65053824 1.4042641 0.65053824,
  0.79674337 1.4042641 0.46,0.88865176 1.4042641 0.23811352,
  0.92 1.4042641 0,0.88865176 1.4042641 -0.23811352,
  0.79674337 1.4042641 -0.46,0.65053824 1.4042641 -0.65053824,
  0.46 1.4042641 -0.79674337,0.23811352 1.4042641 -0.88865176] }
 coordIndex [
  15,0,1,-1,15,14,0,-1,16,1,2,-1,16,2,3,-1,16,15,1,-1,17,16,3,-1,18,3,4,-1,18,17,3,-1,
  19,4,5,-1,19,18,4,-1,20,5,6,-1,20,19,5,-1,21,6,7,-1,21,20,6,-1,22,7,8,-1,22,21,7,-1,
  23,8,9,-1,23,22,8,-1,24,9,10,-1,24,10,11,-1,24,23,9,-1,25,24,11,-1,13,11,12,-1,13,25,11,-1]
  normalPerVertex TRUE
  normal DEF NORM_4 Normal { vector [
  0.13052619 0 0.99144486,0.30091828 0 0.95364993,
  0.5 0 0.8660254,0.70710678 0 0.70710678,
  0.88711369 0 0.46155098,0.9763442 0 0.21622209,
  0.99903848 0 -0.04384197,0.95364993 0 -0.30091828,
  0.84327172 0 -0.5374875,0.67542593 0 -0.73742784,
  0.5 0 -0.8660254,0.25881905 0 -0.96592583,
  0.13052619 0 -0.99144486,0.13052619 0 -0.99144486,
  0.13052619 0 0.99144486,0.21622209 0 0.9763442,
  0.5 0 0.8660254,0.70710678 0 0.70710678,
  0.84327172 0 0.5374875,0.95364993 0 0.30091828,
  0.99903848 0 0.04384197,0.9763442 0 -0.21622209,
  0.88711369 0 -0.46155098,0.73742784 0 -0.67542593,
  0.5 0 -0.8660254,0.25881905 0 -0.96592583] }
}
}
DEF SHAPE_5 Shape {
 appearance USE APP_1
 geometry DEF FACE_5 IndexedFaceSet {
  coord DEF COORD_5 Coordinate { point [
  0 -0.3 1.1,0.28470095 -0.3 1.0625184,
  0.55 -0.3 0.95262794,0.77781746 -0.3 0.77781746,
  0.95262794 -0.3 0.55,1.0625184 -0.3 0.28470095,
  1.1 -0.3 0,1.0625184 -0.3 -0.28470095,
  0.95262794 -0.3 -0.55,0.77781746 -0.3 -0.77781746,
  0.55 -0.3 -0.95262794,0.28470095 -0.3 -1.0625184,
  0 -0.3 -1.1,0 0 -1.1,
  0 0 1.1,0.28470095 0 1.0625184,
  0.55 0 0.95262794,0.77781746 0 0.77781746,
  0.95262794 0 0.55,1.0625184 0 0.28470095,
  1.1 0 0,1.0625184 0 -0.28470095,
  0.95262794 0 -0.55,0.77781746 0 -0.77781746,
  0.55 0 -0.95262794,0.28470095 0 -1.0625184] }
 coordIndex [
  15,0,1,-1,15,14,0,-1,16,1,2,-1,16,15,1,-1,17,2,3,-1,17,16,2,-1,18,3,4,-1,18,17,3,-1,
  19,4,5,-1,19,18,4,-1,20,5,6,-1,20,19,5,-1,21,6,7,-1,21,20,6,-1,22,7,8,-1,22,8,9,-1,
  22,21,7,-1,23,22,9,-1,24,9,10,-1,24,23,9,-1,25,10,11,-1,25,11,12,-1,25,24,10,-1,13,25,12,-1]
  normalPerVertex TRUE
  normal DEF NORM_5 Normal { vector [
  0.13052619 0 0.99144486,0.30091828 0 0.95364993,
  0.5374875 0 0.84327172,0.73742784 0 0.67542593,
  0.88711369 0 0.46155098,0.9763442 0 0.21622209,
  0.99903848 0 -0.04384197,0.95364993 0 -0.30091828,
  0.8660254 0 -0.5,0.70710678 0 -0.70710678,
  0.46155098 0 -0.88711369,0.25881905 0 -0.96592583,
  0.13052619 0 -0.99144486,0.13052619 0 -0.99144486,
  0.13052619 0 0.99144486,0.21622209 0 0.9763442,
  0.46155098 0 0.88711369,0.67542593 0 0.73742784,
  0.84327172 0 0.5374875,0.95364993 0 0.30091828,
  0.99903848 0 0.04384197,0.9763442 0 -0.21622209,
  0.8660254 0 -0.5,0.70710678 0 -0.70710678,
  0.5374875 0 -0.84327172,0.25881905 0 -0.96592583] }
}
}
DEF SHAPE_6 Shape {
 appearance USE APP_1
 geometry DEF FACE_6 IndexedFaceSet {
  coord DEF COORD_6 Coordinate { point [
  -0.62412521 -0.3 0.90579673,-0.43060741 -0.3 1.012214,
  -0.21973229 -0.3 1.0778301,0 -0.3 1.1,
  0 0 1.1,-0.62412521 0 0.90579673,
  -0.43060741 0 1.012214,-0.21973229 0 1.0778301] }
 coordIndex [
  6,0,1,-1,6,5,0,-1,7,1,2,-1,7,6,1,-1,4,2,3,-1,4,7,2,-1]
  normalPerVertex TRUE
  normal DEF NORM_6 Normal { vector [
  -0.48185796 0 0.87624934,-0.36030987 0 0.93283267,
  -0.16670852 0 0.98600622,-0.1003854 0 0.99494863,
  -0.1003854 0 0.99494863,-0.48185796 0 0.87624934,
  -0.42217029 0 0.90651655,-0.23257899 0 0.97257751] }
}
}
DEF SHAPE_7 Shape {
 appearance USE APP_1
 geometry DEF FACE_7 IndexedFaceSet {
  coord DEF COORD_7 Coordinate { point [
  0 -0.3 1.1,0.28470095 -0.3 1.0625184,
  0.55 -0.3 0.95262794,0.77781746 -0.3 0.77781746,
  0.95262794 -0.3 0.55,1.0625184 -0.3 0.28470095,
  1.1 -0.3 0,1.0625184 -0.3 -0.28470095,
  0.95262794 -0.3 -0.55,0.77781746 -0.3 -0.77781746,
  0.55 -0.3 -0.95262794,0.28470095 -0.3 -1.0625184,
  0 -0.3 -1.1,-0.26314947 -0.3 -1.0680601,
  -0.51101717 -0.3 -0.9740952,-0.72920879 -0.3 -0.8235621,
  -0.9050534 -0.3 -0.62520264,-1.0283392 -0.3 -0.39053607,
  -1.0919068 -0.3 -0.13319006,-1.0920645 -0.3 0.13189063,
  -1.0288032 -0.3 0.3893121,-0.90579673 -0.3 0.62412521,
  -0.62412521 -0.3 0.90579673,-0.66148567 -0.3 0.94050402,
  -0.70640886 -0.3 0.96463505,-0.75597432 -0.3 0.97662107,
  -0.80695981 -0.3 0.97568288,-0.85605075 -0.3 0.96188145,
  -0.90005574 -0.3 0.93611402,-0.93611402 -0.3 0.90005574,
  -0.96188145 -0.3 0.85605075,-0.97568288 -0.3 0.80695981,
  -0.97662107 -0.3 0.75597432,-0.96463505 -0.3 0.70640886,
  -0.94050402 -0.3 0.66148567,-0.43060741 -0.3 1.012214,
  -0.21973229 -0.3 1.0778301,-0.4 -0.3 -0.1,
  0.4 -0.3 -0.1,-0.4 -0.3 -0.9,
  0.4 -0.3 -0.9,0.4 -0.3 0.9,
  0.4 -0.3 0.1,-0.4 -0.3 0.9,
  -0.4 -0.3 0.1] }
 coordIndex [
  39,14,13,-1,39,15,14,-1,12,39,13,-1,37,16,15,-1,37,17,16,-1,37,18,17,-1,37,19,18,-1,37,15,39,-1,
  40,12,11,-1,40,39,12,-1,10,40,11,-1,44,20,19,-1,44,19,37,-1,21,20,44,-1,31,32,33,-1,30,33,34,-1,
  30,34,21,-1,30,31,33,-1,9,40,10,-1,27,28,29,-1,26,29,30,-1,26,27,29,-1,23,24,25,-1,22,23,25,-1,
  22,25,26,-1,22,30,21,-1,22,26,30,-1,38,44,37,-1,38,40,9,-1,8,38,9,-1,42,44,38,-1,43,22,21,-1,
  43,21,44,-1,35,22,43,-1,7,38,8,-1,36,35,43,-1,0,36,43,-1,6,42,38,-1,6,38,7,-1,41,0,43,-1,
  1,0,41,-1,5,42,6,-1,2,1,41,-1,4,42,5,-1,3,2,41,-1,3,42,4,-1,3,41,42,-1]
  normalPerVertex TRUE
  normal DEF NORM_7 Normal { vector [
  0 -1 0,0 -1 0,
  0 -1 0,0 -1 0,
  0 -1 0,0 -1 0,
  0 -1 0,0 -1 0,
  0 -1 0,0 -1 0,
  0 -1 0,0 -1 0,
  0 -1 0,0 -1 0,
  0 -1 0,0 -1 0,
  0 -1 0,0 -1 0,
  0 -1 0,0 -1 0,
  0 -1 0,0 -1 0,
  0 -1 0,0 -1 0,
  0 -1 0,0 -1 0,
  0 -1 0,0 -1 0,
  0 -1 0,0 -1 0,
  0 -1 0,0 -1 0,
  0 -1 0,0 -1 0,
  0 -1 0,0 -1 0,
  0 -1 0,0 -1 0,
  0 -1 0,0 -1 0,
  0 -1 0,0 -1 0,
  0 -1 0,0 -1 0,
  0 -1 0] }
}
}
DEF SHAPE_8 Shape {
 appearance USE APP_1
 geometry DEF FACE_8 IndexedFaceSet {
  coord DEF COORD_8 Coordinate { point [
  0 -0.3 -1.1,0 0 -1.1,
  -0.26314947 -0.3 -1.0680601,-0.51101717 -0.3 -0.9740952,
  -0.72920879 -0.3 -0.8235621,-0.9050534 -0.3 -0.62520264,
  -1.0283392 -0.3 -0.39053607,-1.0919068 -0.3 -0.13319006,
  -1.0920645 -0.3 0.13189063,-1.0288032 -0.3 0.3893121,
  -0.90579673 -0.3 0.62412521,-0.90579673 0 0.62412521,
  -0.26314947 0 -1.0680601,-0.51101717 0 -0.9740952,
  -0.72920879 0 -0.8235621,-0.9050534 0 -0.62520264,
  -1.0283392 0 -0.39053607,-1.0919068 0 -0.13319006,
  -1.0920645 0 0.13189063,-1.0288032 0 0.3893121] }
 coordIndex [
  12,1,0,-1,12,0,2,-1,13,2,3,-1,13,12,2,-1,14,3,4,-1,14,13,3,-1,15,4,5,-1,15,14,4,-1,
  16,5,6,-1,16,15,5,-1,17,6,7,-1,17,16,6,-1,18,7,8,-1,18,8,9,-1,18,17,7,-1,19,18,9,-1,
  11,9,10,-1,11,19,9,-1]
  normalPerVertex TRUE
  normal DEF NORM_8 Normal { vector [
  -0.12049125 0 -0.99271439,-0.12049125 0 -0.99271439,
  -0.27828287 0 -0.96049916,-0.4999797 0 -0.86603712,
  -0.69264143 0 -0.72128209,-0.84507969 0 -0.53464036,
  -0.94844202 0 -0.31695069,-0.99672588 0 -0.080854886,
  -0.9927859 0 0.11990057,-0.93527567 0 0.35392009,
  -0.88581734 0 0.4640341,-0.88581734 0 0.4640341,
  -0.1997796 0 -0.97984086,-0.42838292 0 -0.9035973,
  -0.63210895 0 -0.77487952,-0.7991268 0 -0.60116251,
  -0.9197373 0 -0.39253445,-0.98693631 0 -0.16111091,
  -0.9927859 0 0.11990057,-0.93527567 0 0.35392009] }
}
}
DEF SHAPE_9 Shape {
 appearance USE APP_1
 geometry DEF FACE_9 IndexedFaceSet {
  coord DEF COORD_9 Coordinate { point [
  -0.62412521 0 0.90579673,-0.43060741 0 1.012214,
  -0.21973229 0 1.0778301,0 0 1.1,
  0.28470095 0 1.0625184,0.55 0 0.95262794,
  0.77781746 0 0.77781746,0.95262794 0 0.55,
  1.0625184 0 0.28470095,1.1 0 0,
  1.0625184 0 -0.28470095,0.95262794 0 -0.55,
  0.77781746 0 -0.77781746,0.55 0 -0.95262794,
  0.28470095 0 -1.0625184,0 0 -1.1,
  -0.26314947 0 -1.0680601,-0.51101717 0 -0.9740952,
  -0.72920879 0 -0.8235621,-0.9050534 0 -0.62520264,
  -1.0283392 0 -0.39053607,-1.0919068 0 -0.13319006,
  -1.0920645 0 0.13189063,-1.0288032 0 0.3893121,
  -0.90579673 0 0.62412521,-0.66148567 0 0.94050402,
  -0.70640886 0 0.96463505,-0.75597432 0 0.97662107,
  -0.80695981 0 0.97568288,-0.85605075 0 0.96188145,
  -0.90005574 0 0.93611402,-0.93611402 0 0.90005574,
  -0.96188145 0 0.85605075,-0.97568288 0 0.80695981,
  -0.97662107 0 0.75597432,-0.96463505 0 0.70640886,
  -0.94050402 0 0.66148567,0 0 0.92,
  0.23811352 0 0.88865176,0.46 0 0.79674337,
  0.65053824 0 0.65053824,0.79674337 0 0.46,
  0.88865176 0 0.23811352,0.92 0 0,
  0.88865176 0 -0.23811352,0.79674337 0 -0.46,
  0.65053824 0 -0.65053824,0.46 0 -0.79674337,
  0.23811352 0 -0.88865176,0 0 -0.92,
  -0.23811352 0 -0.88865176,-0.46 0 -0.79674337,
  -0.65053824 0 -0.65053824,-0.79674337 0 -0.46,
  -0.88865176 0 -0.23811352,-0.92 0 0,
  -0.88865176 0 0.23811352,-0.79674337 0 0.46,
  -0.65053824 0 0.65053824,-0.46 0 0.79674337,
  -0.23811352 0 0.88865176] }
 coordIndex [
  52,18,19,-1,51,17,18,-1,51,18,52,-1,53,19,20,-1,53,52,19,-1,50,16,17,-1,50,17,51,-1,54,20,21,-1,
  54,53,20,-1,49,15,16,-1,49,16,50,-1,55,21,22,-1,55,54,21,-1,48,14,15,-1,48,15,49,-1,56,55,22,-1,
  23,56,22,-1,57,56,23,-1,47,13,14,-1,47,14,48,-1,24,57,23,-1,58,57,24,-1,58,32,31,-1,58,33,32,-1,
  58,34,33,-1,58,35,34,-1,58,36,35,-1,58,24,36,-1,46,13,47,-1,12,13,46,-1,30,58,31,-1,29,58,30,-1,
  28,58,29,-1,27,58,28,-1,26,58,27,-1,25,58,26,-1,0,58,25,-1,59,58,0,-1,45,12,46,-1,11,12,45,-1,
  1,59,0,-1,60,59,1,-1,10,45,44,-1,10,11,45,-1,2,60,1,-1,37,60,2,-1,3,37,2,-1,9,44,43,-1,
  9,10,44,-1,38,37,3,-1,8,9,43,-1,8,43,42,-1,4,38,3,-1,5,39,38,-1,5,40,39,-1,5,38,4,-1,
  7,41,40,-1,7,42,41,-1,7,8,42,-1,6,40,5,-1,6,7,40,-1]
  normalPerVertex TRUE
  normal DEF NORM_9 Normal { vector [
  0 1 0,0 1 0,
  0 1 0,0 1 0,
  0 1 0,0 1 0,
  0 1 0,0 1 0,
  0 1 0,0 1 0,
  0 1 0,0 1 0,
  0 1 0,0 1 0,
  0 1 0,0 1 0,
  0 1 0,0 1 0,
  0 1 0,0 1 0,
  0 1 0,0 1 0,
  0 1 0,0 1 0,
  0 1 0,0 1 0,
  0 1 0,0 1 0,
  0 1 0,0 1 0,
  0 1 0,0 1 0,
  0 1 0,0 1 0,
  0 1 0,0 1 0,
  0 1 0,0 1 0,
  0 1 0,0 1 0,
  0 1 0,0 1 0,
  0 1 0,0 1 0,
  0 1 0,0 1 0,
  0 1 0,0 1 0,
  0 1 0,0 1 0,
  0 1 0,0 1 0,
  0 1 0,0 1 0,
  0 1 0,0 1 0,
  0 1 0,0 1 0,
  0 1 0,0 1 0,
  0 1 0] }
}
}
DEF SHAPE_10 Shape {
 appearance USE APP_1
 geometry DEF FACE_10 IndexedFaceSet {
  coord DEF COORD_10 Coordinate { point [
  0 0 -0.92,0 1.4042641 -0.92,
  -0.23811352 0 -0.88865176,-0.46 0 -0.79674337,
  -0.65053824 0 -0.65053824,-0.79674337 0 -0.46,
  -0.88865176 0 -0.23811352,-0.92 0 0,
  -0.88865176 0 0.23811352,-0.79674337 0 0.46,
  -0.65053824 0 0.65053824,-0.46 0 0.79674337,
  -0.23811352 0 0.88865176,0 0 0.92,
  0 1.4042641 0.92,-0.23811352 1.4042641 -0.88865176,
  -0.46 1.4042641 -0.79674337,-0.65053824 1.4042641 -0.65053824,
  -0.79674337 1.4042641 -0.46,-0.88865176 1.4042641 -0.23811352,
  -0.92 1.4042641 0,-0.88865176 1.4042641 0.23811352,
  -0.79674337 1.4042641 0.46,-0.65053824 1.4042641 0.65053824,
  -0.46 1.4042641 0.79674337,-0.23811352 1.4042641 0.88865176] }
 coordIndex [
  15,1,0,-1,15,0,2,-1,16,2,3,-1,16,15,2,-1,17,3,4,-1,17,16,3,-1,18,4,5,-1,18,5,6,-1,
  18,17,4,-1,19,6,7,-1,19,18,6,-1,20,19,7,-1,21,7,8,-1,21,20,7,-1,22,8,9,-1,22,21,8,-1,
  23,9,10,-1,23,10,11,-1,23,22,9,-1,24,23,11,-1,25,11,12,-1,25,12,13,-1,25,24,11,-1,14,25,13,-1]
  normalPerVertex TRUE
  normal DEF NORM_10 Normal { vector [
  -0.13052619 0 -0.99144486,-0.13052619 0 -0.99144486,
  -0.30091828 0 -0.95364993,-0.5374875 0 -0.84327172,
  -0.73742784 0 -0.67542593,-0.8660254 0 -0.5,
  -0.95364993 0 -0.30091828,-1 0 0,
  -0.95364993 0 0.30091828,-0.84327172 0 0.5374875,
  -0.70710678 0 0.70710678,-0.5 0 0.8660254,
  -0.25881905 0 0.96592583,-0.13052619 0 0.99144486,
  -0.13052619 0 0.99144486,-0.21622209 0 -0.9763442,
  -0.46155098 0 -0.88711369,-0.67542593 0 -0.73742784,
  -0.8660254 0 -0.5,-0.9763442 0 -0.21622209,
  -1 0 0,-0.9763442 0 0.21622209,
  -0.88711369 0 0.46155098,-0.70710678 0 0.70710678,
  -0.5 0 0.8660254,-0.25881905 0 0.96592583] }
}
}
DEF SHAPE_11 Shape {
 appearance USE APP_1
 geometry DEF FACE_11 IndexedFaceSet {
  coord DEF COORD_11 Coordinate { point [
  0 1.4042641 -0.92,0 1.4819098 -0.90977775,
  0 1.5542641 -0.87980762,0 1.6163961 -0.83213203,
  -0.23811352 1.4042641 -0.88865176,-0.46 1.4042641 -0.79674337,
  -0.65053824 1.4042641 -0.65053824,-0.79674337 1.4042641 -0.46,
  -0.88865176 1.4042641 -0.23811352,-0.92 1.4042641 0,
  -0.88865176 1.4042641 0.23811352,-0.79674337 1.4042641 0.46,
  -0.65053824 1.4042641 0.65053824,-0.46 1.4042641 0.79674337,
  -0.23811352 1.4042641 0.88865176,0 1.4042641 0.92,
  0 1.4819098 0.90977775,0 1.5542641 0.87980762,
  0 1.6163961 0.83213203,-0.21537162 1.6163961 -0.80377782,
  -0.41606602 1.6163961 -0.72064748,-0.5884062 1.6163961 -0.5884062,
  -0.72064748 1.6163961 -0.41606602,-0.80377782 1.6163961 -0.21537162,
  -0.83213203 1.6163961 0,-0.80377782 1.6163961 0.21537162,
  -0.72064748 1.6163961 0.41606602,-0.5884062 1.6163961 0.5884062,
  -0.41606602 1.6163961 0.72064748,-0.21537162 1.6163961 0.80377782,
  -0.23546781 1.4819098 -0.87877782,-0.22771097 1.5542641 -0.8498289,
  -0.45488887 1.4819098 -0.78789064,-0.43990381 1.5542641 -0.76193575,
  -0.64331001 1.4819098 -0.64331001,-0.62211794 1.5542641 -0.62211794,
  -0.78789064 1.4819098 -0.45488887,-0.76193575 1.5542641 -0.43990381,
  -0.87877782 1.4819098 -0.23546781,-0.8498289 1.5542641 -0.22771097,
  -0.90977775 1.4819098 0,-0.87980762 1.5542641 0,
  -0.87877782 1.4819098 0.23546781,-0.8498289 1.5542641 0.22771097,
  -0.78789064 1.4819098 0.45488887,-0.76193575 1.5542641 0.43990381,
  -0.64331001 1.4819098 0.64331001,-0.62211794 1.5542641 0.62211794,
  -0.45488887 1.4819098 0.78789064,-0.43990381 1.5542641 0.76193575,
  -0.23546781 1.4819098 0.87877782,-0.22771097 1.5542641 0.8498289] }
 coordIndex [
  30,1,0,-1,30,0,4,-1,31,2,1,-1,31,3,2,-1,31,19,3,-1,31,1,30,-1,32,4,5,-1,32,30,4,-1,
  33,20,19,-1,33,30,32,-1,33,19,31,-1,33,31,30,-1,34,5,6,-1,34,32,5,-1,35,21,20,-1,35,20,33,-1,
  35,33,32,-1,35,32,34,-1,36,6,7,-1,36,34,6,-1,37,22,21,-1,37,35,34,-1,37,34,36,-1,37,21,35,-1,
  38,7,8,-1,38,36,7,-1,39,23,22,-1,39,36,38,-1,39,37,36,-1,39,22,37,-1,40,8,9,-1,40,39,38,-1,
  40,38,8,-1,41,24,23,-1,41,23,39,-1,41,39,40,-1,42,9,10,-1,42,10,11,-1,42,40,9,-1,42,41,40,-1,
  43,25,24,-1,43,26,25,-1,43,24,41,-1,43,41,42,-1,44,11,12,-1,44,42,11,-1,45,42,44,-1,45,26,43,-1,
  45,43,42,-1,46,44,12,-1,47,26,45,-1,47,44,46,-1,47,27,26,-1,47,28,27,-1,47,45,44,-1,48,46,12,-1,
  48,12,13,-1,49,47,46,-1,49,28,47,-1,49,46,48,-1,50,48,13,-1,50,13,14,-1,50,14,15,-1,50,15,16,-1,
  51,49,48,-1,51,48,50,-1,51,16,17,-1,51,50,16,-1,51,17,18,-1,51,29,28,-1,51,18,29,-1,51,28,49,-1]
  normalPerVertex TRUE
  normal DEF NORM_11 Normal { vector [
  -0.12942831 0.12942831 -0.9831056,-0.12461 0.2976524 -0.94650695,
  -0.1132805 0.49678152 -0.86045084,-0.10388185 0.60546781 -0.78906102,
  -0.29804077 0.13040465 -0.94560368,-0.53262552 0.13040465 -0.83624439,
  -0.73091272 0.13040465 -0.66989643,-0.87938943 0.13040465 -0.45789613,
  -0.9679372 0.13040465 -0.21469097,-0.99052165 0.13040465 0.043145032,
  -0.9576622 0.13052619 0.25660481,-0.87938943 0.13040465 0.45789613,
  -0.70105738 0.13052619 0.70105738,-0.45789613 0.13040465 0.87938943,
  -0.25660481 0.13052619 0.9576622,-0.12942831 0.12942831 0.9831056,
  -0.12461 0.2976524 0.94650695,-0.1132805 0.49678152 0.86045084,
  -0.10388185 0.60546781 0.78906102,-0.24006815 0.60836469 -0.75647847,
  -0.42767906 0.60836469 -0.66856789,-0.58614436 0.60836469 -0.5350955,
  -0.70466488 0.60836469 -0.36515724,-0.77516365 0.60836469 -0.17033412,
  -0.7928363 0.60836469 0.036096991,-0.76632048 0.60876143 0.20533495,
  -0.68706415 0.60876143 0.39667667,-0.56098553 0.60876143 0.56098553,
  -0.39667667 0.60876143 0.68706415,-0.20533495 0.60876143 0.76632048,
  -0.24772274 0.25787843 -0.93388016,-0.1876741 0.49795932 -0.84664925,
  -0.48098776 0.25787843 -0.83794361,-0.40040821 0.49795932 -0.76922674,
  -0.68147427 0.25787843 -0.68490258,-0.58585516 0.49795932 -0.63938271,
  -0.83551942 0.25787843 -0.48518657,-0.73137705 0.49795932 -0.4659658,
  -0.93212076 0.23299325 -0.27724543,-0.84274166 0.48160085 -0.24051426,
  -0.9653215 0.25765081 -0.042076867,-0.86698627 0.49831123 0.004551895,
  -0.9333772 0.25740661 0.25009767,-0.81537353 0.53612785 0.21847868,
  -0.81495451 0.25765081 0.51910039,-0.7737817 0.47625465 0.4176642,
  -0.66102675 0.28340376 0.69478482,-0.61937504 0.5139631 0.5934783,
  -0.48518657 0.25787843 0.83551942,-0.46128251 0.47625465 0.74859866,
  -0.25271475 0.21590295 0.9431443,-0.22452071 0.49746963 0.83792268] }
}
}
DEF SHAPE_12 Shape {
 appearance USE APP_1
 geometry DEF FACE_12 IndexedFaceSet {
  coord DEF COORD_12 Coordinate { point [
  0 2.0242641 0.42426407,0 1.6163961 0.83213203,
  0 2.0242641 -0.42426407,-0.10980762 2.0242641 -0.40980762,
  -0.21213203 2.0242641 -0.36742346,-0.3 2.0242641 -0.3,
  -0.36742346 2.0242641 -0.21213203,-0.40980762 2.0242641 -0.10980762,
  -0.42426407 2.0242641 0,-0.40980762 2.0242641 0.10980762,
  -0.36742346 2.0242641 0.21213203,-0.3 2.0242641 0.3,
  -0.21213203 2.0242641 0.36742346,-0.10980762 2.0242641 0.40980762,
  0 1.6163961 -0.83213203,-0.21537162 1.6163961 -0.80377782,
  -0.41606602 1.6163961 -0.72064748,-0.5884062 1.6163961 -0.5884062,
  -0.72064748 1.6163961 -0.41606602,-0.80377782 1.6163961 -0.21537162,
  -0.83213203 1.6163961 0,-0.80377782 1.6163961 0.21537162,
  -0.72064748 1.6163961 0.41606602,-0.5884062 1.6163961 0.5884062,
  -0.41606602 1.6163961 0.72064748,-0.21537162 1.6163961 0.80377782,
  -0.27256492 1.8203301 0.56598689,-0.49114501 1.8203301 0.39167508,
  -0.61244781 1.8203301 0.13978722,-0.61244781 1.8203301 -0.13978722,
  -0.49114501 1.8203301 -0.39167508,-0.27256492 1.8203301 -0.56598689] }
 coordIndex [
  26,1,0,-1,26,12,11,-1,26,13,12,-1,26,0,13,-1,26,23,24,-1,26,24,25,-1,26,25,1,-1,27,11,10,-1,
  27,22,23,-1,27,23,26,-1,27,26,11,-1,28,9,8,-1,28,10,9,-1,28,20,21,-1,28,21,22,-1,28,27,10,-1,
  28,22,27,-1,29,7,6,-1,29,8,7,-1,29,18,19,-1,29,19,20,-1,29,20,28,-1,29,28,8,-1,30,6,5,-1,
  30,17,18,-1,30,29,6,-1,30,18,29,-1,31,3,2,-1,31,4,3,-1,31,5,4,-1,31,2,14,-1,31,14,15,-1,
  31,15,16,-1,31,16,17,-1,31,17,30,-1,31,30,5,-1]
  normalPerVertex TRUE
  normal DEF NORM_12 Normal { vector [
  -0.14986092 0.69143122 0.70672807,-0.13814038 0.71278481 0.68764457,
  -0.14986092 0.69143122 -0.70672807,-0.18799084 0.68733471 -0.70159136,
  -0.35507931 0.70404172 -0.6150154,-0.47640436 0.69355491 -0.54038918,
  -0.63847297 0.69350044 -0.33378048,-0.68374874 0.70634396 -0.18320992,
  -0.72049795 0.69345707 0,-0.68374874 0.70634396 0.18320992,
  -0.63847297 0.69350044 0.33378048,-0.47640436 0.69355491 0.54038918,
  -0.35507931 0.70404172 0.6150154,-0.18799084 0.68733471 0.70159136,
  -0.13814038 0.71278481 -0.68764457,-0.1781662 0.72534896 -0.66492533,
  -0.35203403 0.7101325 -0.60974083,-0.47133944 0.71603587 -0.51490946,
  -0.61510469 0.71542303 -0.33138514,-0.68227746 0.70786714 -0.18281569,
  -0.69919403 0.71493196 0,-0.68227746 0.70786714 0.18281569,
  -0.61510469 0.71542303 0.33138514,-0.47133944 0.71603587 0.51490946,
  -0.35203403 0.7101325 0.60974083,-0.1781662 0.72534896 0.66492533,
  -0.28708723 0.71401701 0.63856137,-0.55133777 0.71141669 0.43579004,
  -0.68176108 0.71257109 0.16566309,-0.68176108 0.71257109 -0.16566309,
  -0.55133777 0.71141669 -0.43579004,-0.28708723 0.71401701 -0.63856137] }
}
}
DEF SHAPE_13 Shape {
 appearance USE APP_1
 geometry DEF FACE_13 IndexedFaceSet {
  coord DEF COORD_13 Coordinate { point [
  0 2.0242641 0.42426407,0 2.0988818 0.33334214,
  0 2.1543277 0.22961006,0 2.1884712 0.11705419,
  0 2.2 0,0.10980762 2.0242641 0.40980762,
  0.21213203 2.0242641 0.36742346,0.3 2.0242641 0.3,
  0.36742346 2.0242641 0.21213203,0.40980762 2.0242641 0.10980762,
  0.42426407 2.0242641 0,0.40980762 2.0242641 -0.10980762,
  0.36742346 2.0242641 -0.21213203,0.3 2.0242641 -0.3,
  0.21213203 2.0242641 -0.36742346,0.10980762 2.0242641 -0.40980762,
  0 2.0242641 -0.42426407,0 2.0988818 -0.33334214,
  0 2.1543277 -0.22961006,0 2.1884712 -0.11705419,
  0.3 2.0941835 0.16056994,0.15529143 2.1163877 0.26311269,
  0.3 2.1196152 0,0.15529143 2.1724202 0.090662454,
  0.3 2.0941835 -0.16056994,0.15529143 2.1724202 -0.090662454,
  0.15529143 2.1163877 -0.26311269] }
 coordIndex [
  1,0,5,-1,16,17,15,-1,20,7,8,-1,20,8,9,-1,21,2,1,-1,21,5,6,-1,21,6,7,-1,21,7,20,-1,
  21,1,5,-1,22,9,10,-1,22,10,11,-1,22,20,9,-1,23,3,2,-1,23,4,3,-1,23,20,22,-1,23,2,21,-1,
  23,21,20,-1,24,11,12,-1,24,12,13,-1,24,22,11,-1,25,18,19,-1,25,19,4,-1,25,23,22,-1,25,22,24,-1,
  25,4,23,-1,26,13,14,-1,26,14,15,-1,26,17,18,-1,26,24,13,-1,26,18,25,-1,26,25,24,-1,26,15,17,-1]
  normalPerVertex TRUE
  normal DEF NORM_13 Normal { vector [
  0.08322968 0.77032841 0.63219219,0.12769813 0.82639612 0.54841831,
  0.14506169 0.92654662 0.34708569,0.13332868 0.97202871 0.19334853,
  0.14368984 0.98962277 0,0.16593021 0.79654956 0.581357,
  0.30646806 0.79013246 0.53081826,0.42372254 0.79751146 0.42945859,
  0.55337133 0.76922487 0.31948908,0.59245511 0.79330495 0.14022913,
  0.60876143 0.79335334 0,0.59245511 0.79330495 -0.14022913,
  0.55337133 0.76922487 -0.31948908,0.42372254 0.79751146 -0.42945859,
  0.30646806 0.79013246 -0.53081826,0.16593021 0.79654956 -0.581357,
  0.08322968 0.77032841 -0.63219219,0.12769813 0.82639612 -0.54841831,
  0.14506169 0.92654662 -0.34708569,0.13332868 0.97202871 -0.19334853,
  0.45853928 0.84885456 0.26303546,0.2623441 0.86380814 0.43012913,
  0.49529763 0.86872335 0,0.25698574 0.95319263 0.15931776,
  0.45853928 0.84885456 -0.26303546,0.25698574 0.95319263 -0.15931776,
  0.2623441 0.86380814 -0.43012913] }
}
}
DEF SHAPE_14 Shape {
 appearance USE APP_1
 geometry DEF FACE_14 IndexedFaceSet {
  coord DEF COORD_14 Coordinate { point [
  -0.62412521 -0.3 0.90579673,-0.66148567 -0.3 0.94050402,
  -0.70640886 -0.3 0.96463505,-0.75597432 -0.3 0.97662107,
  -0.80695981 -0.3 0.97568288,-0.85605075 -0.3 0.96188145,
  -0.90005574 -0.3 0.93611402,-0.93611402 -0.3 0.90005574,
  -0.96188145 -0.3 0.85605075,-0.97568288 -0.3 0.80695981,
  -0.97662107 -0.3 0.75597432,-0.96463505 -0.3 0.70640886,
  -0.94050402 -0.3 0.66148567,-0.90579673 -0.3 0.62412521,
  -0.62412521 0 0.90579673,-0.66148567 0 0.94050402,
  -0.70640886 0 0.96463505,-0.75597432 0 0.97662107,
  -0.80695981 0 0.97568288,-0.85605075 0 0.96188145,
  -0.90005574 0 0.93611402,-0.93611402 0 0.90005574,
  -0.96188145 0 0.85605075,-0.97568288 0 0.80695981,
  -0.97662107 0 0.75597432,-0.96463505 0 0.70640886,
  -0.94050402 0 0.66148567,-0.90579673 0 0.62412521] }
 coordIndex [
  1,0,14,-1,1,14,15,-1,1,15,16,-1,2,16,17,-1,2,1,16,-1,3,17,18,-1,3,2,17,-1,4,18,19,-1,
  4,3,18,-1,5,19,20,-1,5,4,19,-1,6,20,21,-1,6,5,20,-1,7,21,22,-1,7,6,21,-1,8,7,22,-1,
  9,22,23,-1,9,23,24,-1,9,8,22,-1,10,9,24,-1,11,24,25,-1,11,25,26,-1,11,10,24,-1,12,26,27,-1,
  12,11,26,-1,13,12,27,-1]
  normalPerVertex TRUE
  normal DEF NORM_14 Normal { vector [
  0.68061357 0 0.7326426,0.58165892 0 0.81343279,
  0.3167317 0 0.94851517,0.066566211 0 0.99778201,
  -0.18792675 0 0.98218305,-0.43020259 0 0.90273237,
  -0.64451096 0 0.76459507,-0.81691968 0 0.57675145,
  -0.92031995 0 0.39116644,-0.98932709 0 0.14571174,
  -0.99401808 0 -0.10921567,-0.93408796 0 -0.35704298,
  -0.78778906 0 -0.61594512,-0.7326426 0 -0.68061357,
  0.68061357 0 0.7326426,0.58165892 0 0.81343279,
  0.39669975 0 0.91794842,0.15166493 0 0.98843196,
  -0.10322963 0 0.99465755,-0.35141322 0 0.93622046,
  -0.57675145 0 0.81691968,-0.76459507 0 0.64451096,
  -0.92031995 0 0.39116644,-0.98932709 0 0.14571174,
  -0.99401808 0 -0.10921567,-0.93408796 0 -0.35704298,
  -0.83758537 0 -0.54630646,-0.7326426 0 -0.68061357] }
}
}
DEF SHAPE_15 Shape {
 appearance DEF APP_2 Appearance {
  material Material {
   ambientIntensity 0.1
   diffuseColor 1 1 1
   emissiveColor 0 0 0
   shininess 0.1
   specularColor 0.12 0.12 0.12
   transparency 0
} }
 geometry DEF FACE_15 IndexedFaceSet {
  coord DEF COORD_15 Coordinate { point [
  0.1 -11.3 -0.6,-0.1 -11.3 -0.6,
  0.1 -0.6 -0.6,-0.1 -0.6 -0.6] }
 coordIndex [
  0,3,2,-1,0,1,3,-1]
  normalPerVertex TRUE
  normal DEF NORM_15 Normal { vector [
  0 0 -1,0 0 -1,
  0 0 -1,0 0 -1] }
}
}
DEF SHAPE_16 Shape {
 appearance USE APP_2
 geometry DEF FACE_16 IndexedFaceSet {
  coord DEF COORD_16 Coordinate { point [
  0.1 -11.3 -0.4,-0.1 -11.3 -0.4,
  -0.1 -0.6 -0.4,0.1 -0.6 -0.4] }
 coordIndex [
  3,1,0,-1,3,2,1,-1]
  normalPerVertex TRUE
  normal DEF NORM_16 Normal { vector [
  0 0 1,0 0 1,
  0 0 1,0 0 1] }
}
}
DEF SHAPE_17 Shape {
 appearance USE APP_2
 geometry DEF FACE_17 IndexedFaceSet {
  coord DEF COORD_17 Coordinate { point [
  0.1 -11.3 -0.4,-0.1 -11.3 -0.4,
  0.1 -11.3 -0.6,-0.1 -11.3 -0.6] }
 coordIndex [
  0,3,2,-1,0,1,3,-1]
  normalPerVertex TRUE
  normal DEF NORM_17 Normal { vector [
  0 -1 0,0 -1 0,
  0 -1 0,0 -1 0] }
}
}
DEF SHAPE_18 Shape {
 appearance USE APP_2
 geometry DEF FACE_18 IndexedFaceSet {
  coord DEF COORD_18 Coordinate { point [
  0.1 -11.3 -0.4,0.1 -11.3 -0.6,
  0.1 -0.6 -0.4,0.1 -0.6 -0.6] }
 coordIndex [
  2,0,1,-1,2,1,3,-1]
  normalPerVertex TRUE
  normal DEF NORM_18 Normal { vector [
  1 0 0,1 0 0,
  1 0 0,1 0 0] }
}
}
DEF SHAPE_19 Shape {
 appearance USE APP_2
 geometry DEF FACE_19 IndexedFaceSet {
  coord DEF COORD_19 Coordinate { point [
  -0.1 -0.6 -0.4,-0.1 -11.3 -0.4,
  -0.1 -0.6 -0.6,-0.1 -11.3 -0.6] }
 coordIndex [
  0,2,3,-1,0,3,1,-1]
  normalPerVertex TRUE
  normal DEF NORM_19 Normal { vector [
  -1 0 0,-1 0 0,
  -1 0 0,-1 0 0] }
}
}
DEF SHAPE_20 Shape {
 appearance USE APP_2
 geometry DEF FACE_20 IndexedFaceSet {
  coord DEF COORD_20 Coordinate { point [
  0.1 -11.3 0.4,-0.1 -11.3 0.4,
  0.1 -0.6 0.4,-0.1 -0.6 0.4] }
 coordIndex [
  0,3,2,-1,0,1,3,-1]
  normalPerVertex TRUE
  normal DEF NORM_20 Normal { vector [
  0 0 -1,0 0 -1,
  0 0 -1,0 0 -1] }
}
}
DEF SHAPE_21 Shape {
 appearance USE APP_2
 geometry DEF FACE_21 IndexedFaceSet {
  coord DEF COORD_21 Coordinate { point [
  0.1 -11.3 0.6,-0.1 -11.3 0.6,
  -0.1 -0.6 0.6,0.1 -0.6 0.6] }
 coordIndex [
  3,1,0,-1,3,2,1,-1]
  normalPerVertex TRUE
  normal DEF NORM_21 Normal { vector [
  0 0 1,0 0 1,
  0 0 1,0 0 1] }
}
}
DEF SHAPE_22 Shape {
 appearance USE APP_2
 geometry DEF FACE_22 IndexedFaceSet {
  coord DEF COORD_22 Coordinate { point [
  0.1 -11.3 0.6,-0.1 -11.3 0.6,
  0.1 -11.3 0.4,-0.1 -11.3 0.4] }
 coordIndex [
  0,3,2,-1,0,1,3,-1]
  normalPerVertex TRUE
  normal DEF NORM_22 Normal { vector [
  0 -1 0,0 -1 0,
  0 -1 0,0 -1 0] }
}
}
DEF SHAPE_23 Shape {
 appearance USE APP_2
 geometry DEF FACE_23 IndexedFaceSet {
  coord DEF COORD_23 Coordinate { point [
  0.1 -11.3 0.6,0.1 -11.3 0.4,
  0.1 -0.6 0.6,0.1 -0.6 0.4] }
 coordIndex [
  2,0,1,-1,2,1,3,-1]
  normalPerVertex TRUE
  normal DEF NORM_23 Normal { vector [
  1 0 0,1 0 0,
  1 0 0,1 0 0] }
}
}
DEF SHAPE_24 Shape {
 appearance USE APP_2
 geometry DEF FACE_24 IndexedFaceSet {
  coord DEF COORD_24 Coordinate { point [
  -0.1 -0.6 0.6,-0.1 -11.3 0.6,
  -0.1 -0.6 0.4,-0.1 -11.3 0.4] }
 coordIndex [
  0,2,3,-1,0,3,1,-1]
  normalPerVertex TRUE
  normal DEF NORM_24 Normal { vector [
  -1 0 0,-1 0 0,
  -1 0 0,-1 0 0] }
}
}
DEF SHAPE_25 Shape {
 appearance USE APP_1
 geometry DEF FACE_25 IndexedFaceSet {
  coord DEF COORD_25 Coordinate { point [
  -0.1 -0.6 -0.4,-0.1 -0.6 -0.6,
  -0.10472405 -0.54697064 -0.60472405,-0.1198541 -0.49267678 -0.6198541,
  -0.14611556 -0.44017919 -0.64611556,-0.18300508 -0.39284497 -0.68300508,
  -0.22869224 -0.35372038 -0.72869224,-0.28029768 -0.32491573 -0.78029768,
  -0.34072645 -0.30591388 -0.84072645,-0.4 -0.3 -0.9,
  -0.4 -0.3 -0.1,-0.30349771 -0.31594489 -0.19650229,
  -0.21947954 -0.36039123 -0.28052046,-0.16325194 -0.41574378 -0.33674806,
  -0.12697752 -0.47566688 -0.37302248,-0.10753899 -0.53316768 -0.39246101,
  -0.10181706 -0.56703134 -0.39818294] }
 coordIndex [
  16,1,0,-1,16,2,1,-1,15,3,2,-1,15,2,16,-1,14,4,3,-1,14,3,15,-1,13,5,4,-1,13,4,14,-1,
  12,6,5,-1,12,7,6,-1,12,5,13,-1,11,8,7,-1,11,7,12,-1,10,9,8,-1,10,8,11,-1]
  normalPerVertex TRUE
  normal DEF NORM_25 Normal { vector [
  -0.99848464 -0.055031155 0,-0.99712277 -0.075727577 0.0033932109,
  -0.98378003 -0.17934907 0.0032808411,-0.9366618 -0.35023314 0.0011958552,
  -0.84645801 -0.53245532 0.00040925415,-0.71076495 -0.70342929 -0.00064379806,
  -0.57216908 -0.82013556 -0.00044576206,-0.42096356 -0.90707495 -0.0021738544,
  -0.1811659 -0.98345092 -0.0017925526,-0.099279729 -0.99505956 0,
  -0.13972743 -0.99018459 -0.0032755803,-0.30601992 -0.95201866 -0.0035052202,
  -0.56424308 -0.82560042 -0.0037007598,-0.77870413 -0.62738131 -0.0035468526,
  -0.89862577 -0.43870619 -0.0029347436,-0.96330814 -0.26839539 -0.0011573974,
  -0.99476023 -0.10222062 0.0017433529] }
}
}
DEF SHAPE_26 Shape {
 appearance USE APP_1
 geometry DEF FACE_26 IndexedFaceSet {
  coord DEF COORD_26 Coordinate { point [
  -0.1 -0.6 -0.6,0.1 -0.6 -0.6,
  0.10472405 -0.54697064 -0.60472405,0.1198541 -0.49267678 -0.6198541,
  0.14611556 -0.44017919 -0.64611556,0.18300508 -0.39284497 -0.68300508,
  0.22869224 -0.35372038 -0.72869224,0.28029768 -0.32491573 -0.78029768,
  0.34072645 -0.30591388 -0.84072645,0.4 -0.3 -0.9,
  -0.4 -0.3 -0.9,-0.10472405 -0.54697064 -0.60472405,
  -0.1198541 -0.49267678 -0.6198541,-0.14611556 -0.44017919 -0.64611556,
  -0.18300508 -0.39284497 -0.68300508,-0.22869224 -0.35372038 -0.72869224,
  -0.28029768 -0.32491573 -0.78029768,-0.34072645 -0.30591388 -0.84072645] }
 coordIndex [
  8,10,9,-1,8,16,17,-1,8,17,10,-1,7,15,16,-1,7,16,8,-1,6,14,15,-1,6,15,7,-1,5,13,14,-1,
  5,14,6,-1,4,13,5,-1,12,13,4,-1,3,12,4,-1,11,12,3,-1,2,11,3,-1,1,0,11,-1,1,11,2,-1]
  normalPerVertex TRUE
  normal DEF NORM_26 Normal { vector [
  0 -0.088732262 -0.99605551,0 -0.088732262 -0.99605551,
  0 -0.18190702 -0.98331574,0 -0.33378176 -0.94265038,
  0 -0.50986721 -0.86025312,0 -0.66963726 -0.74268832,
  0 -0.80330556 -0.5955671,0 -0.90758477 -0.41986888,
  0 -0.9808242 -0.19489455,0 -0.99505956 -0.099279729,
  0 -0.99505956 -0.099279729,0 -0.18606738 -0.98253699,
  0 -0.39487639 -0.91873426,0 -0.56639307 -0.82413524,
  0 -0.71812227 -0.69591695,0 -0.84111282 -0.54085971,
  0 -0.93408205 -0.35705843,0 -0.97901674 -0.20377983] }
}
}
DEF SHAPE_27 Shape {
 appearance USE APP_1
 geometry DEF FACE_27 IndexedFaceSet {
  coord DEF COORD_27 Coordinate { point [
  -0.4 -0.3 -0.1,0.4 -0.3 -0.1,
  0.30349771 -0.31594489 -0.19650229,0.21947954 -0.36039123 -0.28052046,
  0.16325194 -0.41574378 -0.33674806,0.12697752 -0.47566688 -0.37302248,
  0.10753899 -0.53316768 -0.39246101,0.10181706 -0.56703134 -0.39818294,
  0.1 -0.6 -0.4,-0.1 -0.6 -0.4,
  -0.30349771 -0.31594489 -0.19650229,-0.21947954 -0.36039123 -0.28052046,
  -0.16325194 -0.41574378 -0.33674806,-0.12697752 -0.47566688 -0.37302248,
  -0.10753899 -0.53316768 -0.39246101,-0.10181706 -0.56703134 -0.39818294] }
 coordIndex [
  7,9,8,-1,7,15,9,-1,6,14,15,-1,6,15,7,-1,5,13,14,-1,5,14,6,-1,4,12,13,-1,4,13,5,-1,
  3,11,12,-1,3,12,4,-1,2,0,10,-1,2,10,11,-1,2,11,3,-1,1,0,2,-1]
  normalPerVertex TRUE
  normal DEF NORM_27 Normal { vector [
  0 -0.98662312 0.16301782,0 -0.98662312 0.16301782,
  0 -0.95565215 0.29449782,0 -0.79069318 0.61221263,
  0 -0.5977899 0.80165281,0 -0.39848786 0.91717361,
  0 -0.24047273 0.97065589,0 -0.093563928 0.99561327,
  0 -0.055031155 0.99848464,0 -0.055031155 0.99848464,
  0 -0.94833958 0.31725707,0 -0.84652181 0.53235404,
  0 -0.6632165 0.7484276,0 -0.46574566 0.88491863,
  0 -0.28919447 0.95727037,0 -0.13123914 0.99135074] }
}
}
DEF SHAPE_28 Shape {
 appearance USE APP_1
 geometry DEF FACE_28 IndexedFaceSet {
  coord DEF COORD_28 Coordinate { point [
  0.1 -0.6 -0.6,0.1 -0.6 -0.4,
  0.4 -0.3 -0.1,0.30349771 -0.31594489 -0.19650229,
  0.21947954 -0.36039123 -0.28052046,0.16325194 -0.41574378 -0.33674806,
  0.12697752 -0.47566688 -0.37302248,0.10753899 -0.53316768 -0.39246101,
  0.10181706 -0.56703134 -0.39818294,0.4 -0.3 -0.9,
  0.10472405 -0.54697064 -0.60472405,0.1198541 -0.49267678 -0.6198541,
  0.14611556 -0.44017919 -0.64611556,0.18300508 -0.39284497 -0.68300508,
  0.22869224 -0.35372038 -0.72869224,0.28029768 -0.32491573 -0.78029768,
  0.34072645 -0.30591388 -0.84072645] }
 coordIndex [
  0,8,1,-1,10,7,8,-1,10,8,0,-1,11,6,7,-1,11,7,10,-1,12,5,6,-1,12,6,11,-1,13,4,5,-1,
  13,5,12,-1,14,4,13,-1,15,3,4,-1,15,4,14,-1,16,2,3,-1,16,3,15,-1,9,2,16,-1]
  normalPerVertex TRUE
  normal DEF NORM_28 Normal { vector [
  0.99712277 -0.075727577 0.0033932109,0.99848464 -0.055031155 0,
  0.13972743 -0.99018459 -0.0032755803,0.30601992 -0.95201866 -0.0035052202,
  0.56424308 -0.82560042 -0.0037007598,0.77870413 -0.62738131 -0.0035468526,
  0.89862577 -0.43870619 -0.0029347436,0.96330814 -0.26839539 -0.0011573974,
  0.99476023 -0.10222062 0.0017433529,0.099279729 -0.99505956 0,
  0.98378003 -0.17934907 0.0032808411,0.9366618 -0.35023314 0.0011958552,
  0.84645801 -0.53245532 0.00040925415,0.71076495 -0.70342929 -0.00064379806,
  0.57216908 -0.82013556 -0.00044576206,0.42096356 -0.90707495 -0.0021738544,
  0.1811659 -0.98345092 -0.0017925526] }
}
}
DEF SHAPE_29 Shape {
 appearance USE APP_1
 geometry DEF FACE_29 IndexedFaceSet {
  coord DEF COORD_29 Coordinate { point [
  0.4 -0.3 0.9,0.4 -0.3 0.1,
  0.30349771 -0.31594489 0.19650229,0.21947954 -0.36039123 0.28052046,
  0.16325194 -0.41574378 0.33674806,0.12697752 -0.47566688 0.37302248,
  0.10753899 -0.53316768 0.39246101,0.10181706 -0.56703134 0.39818294,
  0.1 -0.6 0.4,0.1 -0.6 0.6,
  0.10472405 -0.54697064 0.60472405,0.1198541 -0.49267678 0.6198541,
  0.14611556 -0.44017919 0.64611556,0.18300508 -0.39284497 0.68300508,
  0.22869224 -0.35372038 0.72869224,0.28029768 -0.32491573 0.78029768,
  0.34072645 -0.30591388 0.84072645] }
 coordIndex [
  7,9,8,-1,7,10,9,-1,6,11,10,-1,6,10,7,-1,5,12,11,-1,5,11,6,-1,4,13,12,-1,4,12,5,-1,
  3,14,13,-1,3,15,14,-1,3,13,4,-1,2,16,15,-1,2,15,3,-1,1,0,16,-1,1,16,2,-1]
  normalPerVertex TRUE
  normal DEF NORM_29 Normal { vector [
  0.099279729 -0.99505956 0,0.13972743 -0.99018459 0.0032755803,
  0.30601992 -0.95201866 0.0035052202,0.56424308 -0.82560042 0.0037007598,
  0.77870413 -0.62738131 0.0035468526,0.89862577 -0.43870619 0.0029347436,
  0.96330814 -0.26839539 0.0011573974,0.99476023 -0.10222062 -0.0017433529,
  0.99848464 -0.055031155 0,0.99712277 -0.075727577 -0.0033932109,
  0.98378003 -0.17934907 -0.0032808411,0.9366618 -0.35023314 -0.0011958552,
  0.84645801 -0.53245532 -0.00040925415,0.71076495 -0.70342929 0.00064379806,
  0.57216908 -0.82013556 0.00044576206,0.42096356 -0.90707495 0.0021738544,
  0.1811659 -0.98345092 0.0017925526] }
}
}
DEF SHAPE_30 Shape {
 appearance USE APP_1
 geometry DEF FACE_30 IndexedFaceSet {
  coord DEF COORD_30 Coordinate { point [
  0.4 -0.3 0.1,-0.4 -0.3 0.1,
  -0.30349771 -0.31594489 0.19650229,-0.21947954 -0.36039123 0.28052046,
  -0.16325194 -0.41574378 0.33674806,-0.12697752 -0.47566688 0.37302248,
  -0.10753899 -0.53316768 0.39246101,-0.10181706 -0.56703134 0.39818294,
  -0.1 -0.6 0.4,0.1 -0.6 0.4,
  0.30349771 -0.31594489 0.19650229,0.21947954 -0.36039123 0.28052046,
  0.16325194 -0.41574378 0.33674806,0.12697752 -0.47566688 0.37302248,
  0.10753899 -0.53316768 0.39246101,0.10181706 -0.56703134 0.39818294] }
 coordIndex [
  10,1,0,-1,10,2,1,-1,11,3,2,-1,11,2,10,-1,4,3,11,-1,12,4,11,-1,5,4,12,-1,13,5,12,-1,
  6,5,13,-1,14,7,6,-1,14,6,13,-1,15,8,7,-1,15,7,14,-1,9,8,15,-1]
  normalPerVertex TRUE
  normal DEF NORM_30 Normal { vector [
  0 -0.98662312 -0.16301782,0 -0.98662312 -0.16301782,
  0 -0.93369071 -0.35808052,0 -0.81476715 -0.57978832,
  0 -0.6632165 -0.7484276,0 -0.46574566 -0.88491863,
  0 -0.28919447 -0.95727037,0 -0.13123914 -0.99135074,
  0 -0.055031155 -0.99848464,0 -0.055031155 -0.99848464,
  0 -0.96674087 -0.25575788,0 -0.82741392 -0.56159257,
  0 -0.5977899 -0.80165281,0 -0.39848786 -0.91717361,
  0 -0.24047273 -0.97065589,0 -0.093563928 -0.99561327] }
}
}
DEF SHAPE_31 Shape {
 appearance USE APP_1
 geometry DEF FACE_31 IndexedFaceSet {
  coord DEF COORD_31 Coordinate { point [
  0.1 -0.6 0.6,-0.1 -0.6 0.6,
  -0.10472405 -0.54697064 0.60472405,-0.1198541 -0.49267678 0.6198541,
  -0.14611556 -0.44017919 0.64611556,-0.18300508 -0.39284497 0.68300508,
  -0.22869224 -0.35372038 0.72869224,-0.28029768 -0.32491573 0.78029768,
  -0.34072645 -0.30591388 0.84072645,-0.4 -0.3 0.9,
  0.4 -0.3 0.9,0.10472405 -0.54697064 0.60472405,
  0.1198541 -0.49267678 0.6198541,0.14611556 -0.44017919 0.64611556,
  0.18300508 -0.39284497 0.68300508,0.22869224 -0.35372038 0.72869224,
  0.28029768 -0.32491573 0.78029768,0.34072645 -0.30591388 0.84072645] }
 coordIndex [
  11,1,0,-1,11,2,1,-1,12,3,2,-1,12,2,11,-1,13,4,3,-1,13,3,12,-1,14,5,4,-1,14,6,5,-1,
  14,4,13,-1,15,6,14,-1,16,7,6,-1,16,6,15,-1,17,8,7,-1,17,7,16,-1,10,9,8,-1,10,8,17,-1]
  normalPerVertex TRUE
  normal DEF NORM_31 Normal { vector [
  0 -0.088732262 0.99605551,0 -0.088732262 0.99605551,
  0 -0.21424928 0.97677902,0 -0.39487639 0.91873426,
  0 -0.56639307 0.82413524,0 -0.69068498 0.72315577,
  0 -0.82592722 0.56377675,0 -0.93408205 0.35705843,
  0 -0.98613033 0.16597283,0 -0.99505956 0.099279729,
  0 -0.99505956 0.099279729,0 -0.15244492 0.98831197,
  0 -0.33378176 0.94265038,0 -0.50986721 0.86025312,
  0 -0.69875238 0.71536363,0 -0.81992647 0.57246885,
  0 -0.90758477 0.41986888,0 -0.97253273 0.23276619] }
}
}
DEF SHAPE_32 Shape {
 appearance USE APP_1
 geometry DEF FACE_32 IndexedFaceSet {
  coord DEF COORD_32 Coordinate { point [
  -0.4 -0.3 0.1,-0.4 -0.3 0.9,
  -0.1 -0.6 0.6,-0.10472405 -0.54697064 0.60472405,
  -0.1198541 -0.49267678 0.6198541,-0.14611556 -0.44017919 0.64611556,
  -0.18300508 -0.39284497 0.68300508,-0.22869224 -0.35372038 0.72869224,
  -0.28029768 -0.32491573 0.78029768,-0.34072645 -0.30591388 0.84072645,
  -0.1 -0.6 0.4,-0.30349771 -0.31594489 0.19650229,
  -0.21947954 -0.36039123 0.28052046,-0.16325194 -0.41574378 0.33674806,
  -0.12697752 -0.47566688 0.37302248,-0.10753899 -0.53316768 0.39246101,
  -0.10181706 -0.56703134 0.39818294] }
 coordIndex [
  2,16,10,-1,3,15,16,-1,3,16,2,-1,4,14,15,-1,4,15,3,-1,5,13,14,-1,5,14,4,-1,6,12,13,-1,
  6,13,5,-1,7,12,6,-1,8,11,12,-1,8,12,7,-1,9,0,11,-1,9,11,8,-1,1,0,9,-1]
  normalPerVertex TRUE
  normal DEF NORM_32 Normal { vector [
  -0.13972743 -0.99018459 0.0032755803,-0.099279729 -0.99505956 0,
  -0.99712277 -0.075727577 -0.0033932109,-0.98378003 -0.17934907 -0.0032808411,
  -0.9366618 -0.35023314 -0.0011958552,-0.84645801 -0.53245532 -0.00040925415,
  -0.71076495 -0.70342929 0.00064379806,-0.57216908 -0.82013556 0.00044576206,
  -0.42096356 -0.90707495 0.0021738544,-0.1811659 -0.98345092 0.0017925526,
  -0.99848464 -0.055031155 0,-0.30601992 -0.95201866 0.0035052202,
  -0.56424308 -0.82560042 0.0037007598,-0.77870413 -0.62738131 0.0035468526,
  -0.89862577 -0.43870619 0.0029347436,-0.96330814 -0.26839539 0.0011573974,
  -0.99476023 -0.10222062 -0.0017433529] }
}
}
] }
] }
] }
