#VRML V2.0 utf8
DEF TXFM_1 Transform {
  center 0 0 0
  rotation 0 0 1 0
  scale 1 1 1
  scaleOrientation 0 0 1 0
  translation 0 0 0
 children [
DEF TXFM_2 Transform {
  center 0 0 0
  rotation 0 0 1 0
  scale 1 1 1
  scaleOrientation 0 0 1 0
  translation 0 0 0
 children [
DEF TXFM_3 Transform {
  center 0 0 0
  rotation 0 0 1 0
  scale 1 1 1
  scaleOrientation 0 0 1 0
  translation 0 0 0
 children [
DEF SHAPE_1 Shape {
 appearance DEF APP_1 Appearance {
  material Material {
   ambientIntensity 0.13793105
   diffuseColor 0.72499996 0.72499996 0.72499996
   emissiveColor 0 0 0
   shininess 0.1
   specularColor 0.12 0.12 0.12
   transparency 0
} }
 geometry DEF FACE_1 IndexedFaceSet {
  coord DEF COORD_1 Coordinate { point [
  1.8185039 0 0,1.8236151 -0.038822857 0,
  1.8386001 -0.075 0,1.8624379 -0.10606602 0,
  1.8935039 -0.12990381 0,1.9296811 -0.14488887 0,
  1.9685039 -0.15 0,2.0073268 -0.14488887 0,
  2.0435039 -0.12990381 0,2.07457 -0.10606602 0,
  2.0984077 -0.075 0,2.1133928 -0.038822857 0,
  2.1185039 0 0,2.1133928 0.038822857 0,
  2.0984077 0.075 0,2.07457 0.10606602 0,
  2.0435039 0.12990381 0,2.0073268 0.14488887 0,
  1.9685039 0.15 0,1.9296811 0.14488887 0,
  1.8935039 0.12990381 0,1.8624379 0.10606602 0,
  1.8386001 0.075 0,1.8236151 0.038822857 0,
  1.8185039 0 0,1.8185039 0 -1.9,
  1.8185039 0 -1.9,1.8236151 0.038822857 -1.9,
  1.8386001 0.075 -1.9,1.8624379 0.10606602 -1.9,
  1.8935039 0.12990381 -1.9,1.9296811 0.14488887 -1.9,
  1.9685039 0.15 -1.9,2.0073268 0.14488887 -1.9,
  2.0435039 0.12990381 -1.9,2.07457 0.10606602 -1.9,
  2.0984077 0.075 -1.9,2.1133928 0.038822857 -1.9,
  2.1185039 0 -1.9,2.1133928 -0.038822857 -1.9,
  2.0984077 -0.075 -1.9,2.07457 -0.10606602 -1.9,
  2.0435039 -0.12990381 -1.9,2.0073268 -0.14488887 -1.9,
  1.9685039 -0.15 -1.9,1.9296811 -0.14488887 -1.9,
  1.8935039 -0.12990381 -1.9,1.8624379 -0.10606602 -1.9,
  1.8386001 -0.075 -1.9,1.8236151 -0.038822857 -1.9] }
 coordIndex [
  1,0,25,-1,1,25,49,-1,2,49,48,-1,2,1,49,-1,3,48,47,-1,3,2,48,-1,4,47,46,-1,4,3,47,-1,
  5,46,45,-1,5,4,46,-1,6,45,44,-1,6,5,45,-1,7,44,43,-1,7,6,44,-1,8,43,42,-1,8,7,43,-1,
  9,42,41,-1,9,8,42,-1,10,41,40,-1,10,9,41,-1,11,40,39,-1,11,10,40,-1,12,11,39,-1,12,39,38,-1,
  13,12,38,-1,13,38,37,-1,14,13,37,-1,14,37,36,-1,15,14,36,-1,15,35,34,-1,15,36,35,-1,16,15,34,-1,
  17,16,34,-1,17,34,33,-1,18,17,33,-1,18,33,32,-1,19,32,31,-1,19,18,32,-1,20,31,30,-1,20,19,31,-1,
  21,30,29,-1,21,20,30,-1,22,29,28,-1,22,21,29,-1,23,28,27,-1,23,22,28,-1,24,27,26,-1,24,23,27,-1]
  normalPerVertex TRUE
  normal DEF NORM_1 Normal { vector [
  -0.99144486 -0.13052619 0,-0.9763442 -0.21622209 0,
  -0.88711369 -0.46155098 0,-0.73742784 -0.67542593 0,
  -0.5374875 -0.84327172 0,-0.30091828 -0.95364993 0,
  -0.04384197 -0.99903848 0,0.21622209 -0.9763442 0,
  0.46155098 -0.88711369 0,0.67542593 -0.73742784 0,
  0.84327172 -0.5374875 0,0.95364993 -0.30091828 0,
  0.99903848 -0.04384197 0,0.9763442 0.21622209 0,
  0.88711369 0.46155098 0,0.70710678 0.70710678 0,
  0.5 0.8660254 0,0.30091828 0.95364993 0,
  0.04384197 0.99903848 0,-0.21622209 0.9763442 0,
  -0.46155098 0.88711369 0,-0.67542593 0.73742784 0,
  -0.84327172 0.5374875 0,-0.95364993 0.30091828 0,
  -0.99144486 0.13052619 0,-0.99144486 -0.13052619 0,
  -0.99144486 0.13052619 0,-0.9763442 0.21622209 0,
  -0.88711369 0.46155098 0,-0.73742784 0.67542593 0,
  -0.5374875 0.84327172 0,-0.30091828 0.95364993 0,
  -0.04384197 0.99903848 0,0.21622209 0.9763442 0,
  0.5 0.8660254 0,0.70710678 0.70710678 0,
  0.84327172 0.5374875 0,0.95364993 0.30091828 0,
  0.99903848 0.04384197 0,0.9763442 -0.21622209 0,
  0.88711369 -0.46155098 0,0.73742784 -0.67542593 0,
  0.5374875 -0.84327172 0,0.30091828 -0.95364993 0,
  0.04384197 -0.99903848 0,-0.21622209 -0.9763442 0,
  -0.46155098 -0.88711369 0,-0.67542593 -0.73742784 0,
  -0.84327172 -0.5374875 0,-0.95364993 -0.30091828 0] }
}
}
DEF SHAPE_2 Shape {
 appearance USE APP_1
 geometry DEF FACE_2 IndexedFaceSet {
  coord DEF COORD_2 Coordinate { point [
  1.8185039 0 -1.9,1.8236151 0.038822857 -1.9,
  1.8386001 0.075 -1.9,1.8624379 0.10606602 -1.9,
  1.8935039 0.12990381 -1.9,1.9296811 0.14488887 -1.9,
  1.9685039 0.15 -1.9,2.0073268 0.14488887 -1.9,
  2.0435039 0.12990381 -1.9,2.07457 0.10606602 -1.9,
  2.0984077 0.075 -1.9,2.1133928 0.038822857 -1.9,
  2.1185039 0 -1.9,2.1133928 -0.038822857 -1.9,
  2.0984077 -0.075 -1.9,2.07457 -0.10606602 -1.9,
  2.0435039 -0.12990381 -1.9,2.0073268 -0.14488887 -1.9,
  1.9685039 -0.15 -1.9,1.9296811 -0.14488887 -1.9,
  1.8935039 -0.12990381 -1.9,1.8624379 -0.10606602 -1.9,
  1.8386001 -0.075 -1.9,1.8236151 -0.038822857 -1.9] }
 coordIndex [
  6,7,8,-1,3,0,1,-1,3,1,2,-1,3,4,5,-1,3,5,6,-1,3,8,9,-1,3,9,10,-1,3,10,11,-1,
  3,11,12,-1,3,12,13,-1,3,13,14,-1,3,14,15,-1,3,15,16,-1,3,16,17,-1,3,17,18,-1,3,18,19,-1,
  3,19,20,-1,3,20,21,-1,3,21,22,-1,3,22,23,-1,3,23,0,-1,3,6,8,-1]
  normalPerVertex TRUE
  normal DEF NORM_2 Normal { vector [
  0 0 -1,0 0 -1,
  0 0 -1,0 0 -1,
  0 0 -1,0 0 -1,
  0 0 -1,0 0 -1,
  0 0 -1,0 0 -1,
  0 0 -1,0 0 -1,
  0 0 -1,0 0 -1,
  0 0 -1,0 0 -1,
  0 0 -1,0 0 -1,
  0 0 -1,0 0 -1,
  0 0 -1,0 0 -1,
  0 0 -1,0 0 -1] }
}
}
DEF SHAPE_3 Shape {
 appearance USE APP_1
 geometry DEF FACE_3 IndexedFaceSet {
  coord DEF COORD_3 Coordinate { point [
  1.8185039 0 0,1.8236151 -0.038822857 0,
  1.8386001 -0.075 0,1.8624379 -0.10606602 0,
  1.8935039 -0.12990381 0,1.9296811 -0.14488887 0,
  1.9685039 -0.15 0,2.0073268 -0.14488887 0,
  2.0435039 -0.12990381 0,2.07457 -0.10606602 0,
  2.0984077 -0.075 0,2.1133928 -0.038822857 0,
  2.1185039 0 0,2.1133928 0.038822857 0,
  2.0984077 0.075 0,2.07457 0.10606602 0,
  2.0435039 0.12990381 0,2.0073268 0.14488887 0,
  1.9685039 0.15 0,1.9296811 0.14488887 0,
  1.8935039 0.12990381 0,1.8624379 0.10606602 0,
  1.8386001 0.075 0,1.8236151 0.038822857 0] }
 coordIndex [
  17,14,15,-1,17,15,16,-1,21,0,1,-1,21,1,2,-1,21,2,3,-1,21,3,4,-1,21,4,5,-1,21,5,6,-1,
  21,6,7,-1,21,7,8,-1,21,8,9,-1,21,9,10,-1,21,10,11,-1,21,11,12,-1,21,12,13,-1,21,13,14,-1,
  21,17,18,-1,21,18,19,-1,21,19,20,-1,21,22,23,-1,21,23,0,-1,21,14,17,-1]
  normalPerVertex TRUE
  normal DEF NORM_3 Normal { vector [
  0 0 1,0 0 1,
  0 0 1,0 0 1,
  0 0 1,0 0 1,
  0 0 1,0 0 1,
  0 0 1,0 0 1,
  0 0 1,0 0 1,
  0 0 1,0 0 1,
  0 0 1,0 0 1,
  0 0 1,0 0 1,
  0 0 1,0 0 1,
  0 0 1,0 0 1,
  0 0 1,0 0 1] }
}
}
] }
DEF TXFM_4 Transform {
  center 0 0 0
  rotation 0 0 1 0
  scale 1 1 1
  scaleOrientation 0 0 1 0
  translation 0 0 0
 children [
DEF SHAPE_4 Shape {
 appearance USE APP_1
 geometry DEF FACE_4 IndexedFaceSet {
  coord DEF COORD_4 Coordinate { point [
  -0.15 0 0,-0.14488887 -0.038822857 0,
  -0.12990381 -0.075 0,-0.10606602 -0.10606602 0,
  -0.075 -0.12990381 0,-0.038822857 -0.14488887 0,
  0 -0.15 0,0.038822857 -0.14488887 0,
  0.075 -0.12990381 0,0.10606602 -0.10606602 0,
  0.12990381 -0.075 0,0.14488887 -0.038822857 0,
  0.15 0 0,0.14488887 0.038822857 0,
  0.12990381 0.075 0,0.10606602 0.10606602 0,
  0.075 0.12990381 0,0.038822857 0.14488887 0,
  0 0.15 0,-0.038822857 0.14488887 0,
  -0.075 0.12990381 0,-0.10606602 0.10606602 0,
  -0.12990381 0.075 0,-0.14488887 0.038822857 0,
  -0.15 0 0,-0.15 0 -1.9,
  -0.15 0 -1.9,-0.14488887 0.038822857 -1.9,
  -0.12990381 0.075 -1.9,-0.10606602 0.10606602 -1.9,
  -0.075 0.12990381 -1.9,-0.038822857 0.14488887 -1.9,
  0 0.15 -1.9,0.038822857 0.14488887 -1.9,
  0.075 0.12990381 -1.9,0.10606602 0.10606602 -1.9,
  0.12990381 0.075 -1.9,0.14488887 0.038822857 -1.9,
  0.15 0 -1.9,0.14488887 -0.038822857 -1.9,
  0.12990381 -0.075 -1.9,0.10606602 -0.10606602 -1.9,
  0.075 -0.12990381 -1.9,0.038822857 -0.14488887 -1.9,
  0 -0.15 -1.9,-0.038822857 -0.14488887 -1.9,
  -0.075 -0.12990381 -1.9,-0.10606602 -0.10606602 -1.9,
  -0.12990381 -0.075 -1.9,-0.14488887 -0.038822857 -1.9] }
 coordIndex [
  1,0,25,-1,1,25,49,-1,2,49,48,-1,2,1,49,-1,3,48,47,-1,3,2,48,-1,4,47,46,-1,4,3,47,-1,
  5,46,45,-1,5,4,46,-1,6,45,44,-1,6,5,45,-1,7,44,43,-1,7,6,44,-1,8,43,42,-1,8,7,43,-1,
  9,42,41,-1,9,8,42,-1,10,41,40,-1,10,9,41,-1,11,40,39,-1,11,10,40,-1,12,11,39,-1,12,39,38,-1,
  13,12,38,-1,13,38,37,-1,14,13,37,-1,14,37,36,-1,15,14,36,-1,15,35,34,-1,15,36,35,-1,16,15,34,-1,
  17,16,34,-1,17,34,33,-1,18,17,33,-1,18,33,32,-1,19,32,31,-1,19,18,32,-1,20,31,30,-1,20,19,31,-1,
  21,30,29,-1,21,20,30,-1,22,29,28,-1,22,21,29,-1,23,28,27,-1,23,22,28,-1,24,27,26,-1,24,23,27,-1]
  normalPerVertex TRUE
  normal DEF NORM_4 Normal { vector [
  -0.99144486 -0.13052619 0,-0.9763442 -0.21622209 0,
  -0.88711369 -0.46155098 0,-0.73742784 -0.67542593 0,
  -0.5374875 -0.84327172 0,-0.30091828 -0.95364993 0,
  -0.04384197 -0.99903848 0,0.21622209 -0.9763442 0,
  0.46155098 -0.88711369 0,0.67542593 -0.73742784 0,
  0.84327172 -0.5374875 0,0.95364993 -0.30091828 0,
  0.99903848 -0.04384197 0,0.9763442 0.21622209 0,
  0.88711369 0.46155098 0,0.70710678 0.70710678 0,
  0.5 0.8660254 0,0.30091828 0.95364993 0,
  0.04384197 0.99903848 0,-0.21622209 0.9763442 0,
  -0.46155098 0.88711369 0,-0.67542593 0.73742784 0,
  -0.84327172 0.5374875 0,-0.95364993 0.30091828 0,
  -0.99144486 0.13052619 0,-0.99144486 -0.13052619 0,
  -0.99144486 0.13052619 0,-0.9763442 0.21622209 0,
  -0.88711369 0.46155098 0,-0.73742784 0.67542593 0,
  -0.5374875 0.84327172 0,-0.30091828 0.95364993 0,
  -0.04384197 0.99903848 0,0.21622209 0.9763442 0,
  0.5 0.8660254 0,0.70710678 0.70710678 0,
  0.84327172 0.5374875 0,0.95364993 0.30091828 0,
  0.99903848 0.04384197 0,0.9763442 -0.21622209 0,
  0.88711369 -0.46155098 0,0.73742784 -0.67542593 0,
  0.5374875 -0.84327172 0,0.30091828 -0.95364993 0,
  0.04384197 -0.99903848 0,-0.21622209 -0.9763442 0,
  -0.46155098 -0.88711369 0,-0.67542593 -0.73742784 0,
  -0.84327172 -0.5374875 0,-0.95364993 -0.30091828 0] }
}
}
DEF SHAPE_5 Shape {
 appearance USE APP_1
 geometry DEF FACE_5 IndexedFaceSet {
  coord DEF COORD_5 Coordinate { point [
  -0.15 0 -1.9,-0.14488887 0.038822857 -1.9,
  -0.12990381 0.075 -1.9,-0.10606602 0.10606602 -1.9,
  -0.075 0.12990381 -1.9,-0.038822857 0.14488887 -1.9,
  0 0.15 -1.9,0.038822857 0.14488887 -1.9,
  0.075 0.12990381 -1.9,0.10606602 0.10606602 -1.9,
  0.12990381 0.075 -1.9,0.14488887 0.038822857 -1.9,
  0.15 0 -1.9,0.14488887 -0.038822857 -1.9,
  0.12990381 -0.075 -1.9,0.10606602 -0.10606602 -1.9,
  0.075 -0.12990381 -1.9,0.038822857 -0.14488887 -1.9,
  0 -0.15 -1.9,-0.038822857 -0.14488887 -1.9,
  -0.075 -0.12990381 -1.9,-0.10606602 -0.10606602 -1.9,
  -0.12990381 -0.075 -1.9,-0.14488887 -0.038822857 -1.9] }
 coordIndex [
  7,8,9,-1,3,0,1,-1,3,1,2,-1,3,4,5,-1,3,5,6,-1,3,6,7,-1,3,9,10,-1,3,10,11,-1,
  3,11,12,-1,3,12,13,-1,3,13,14,-1,3,14,15,-1,3,15,16,-1,3,16,17,-1,3,17,18,-1,3,18,19,-1,
  3,19,20,-1,3,20,21,-1,3,21,22,-1,3,22,23,-1,3,23,0,-1,3,7,9,-1]
  normalPerVertex TRUE
  normal DEF NORM_5 Normal { vector [
  0 0 -1,0 0 -1,
  0 0 -1,0 0 -1,
  0 0 -1,0 0 -1,
  0 0 -1,0 0 -1,
  0 0 -1,0 0 -1,
  0 0 -1,0 0 -1,
  0 0 -1,0 0 -1,
  0 0 -1,0 0 -1,
  0 0 -1,0 0 -1,
  0 0 -1,0 0 -1,
  0 0 -1,0 0 -1,
  0 0 -1,0 0 -1] }
}
}
DEF SHAPE_6 Shape {
 appearance USE APP_1
 geometry DEF FACE_6 IndexedFaceSet {
  coord DEF COORD_6 Coordinate { point [
  -0.15 0 0,-0.14488887 -0.038822857 0,
  -0.12990381 -0.075 0,-0.10606602 -0.10606602 0,
  -0.075 -0.12990381 0,-0.038822857 -0.14488887 0,
  0 -0.15 0,0.038822857 -0.14488887 0,
  0.075 -0.12990381 0,0.10606602 -0.10606602 0,
  0.12990381 -0.075 0,0.14488887 -0.038822857 0,
  0.15 0 0,0.14488887 0.038822857 0,
  0.12990381 0.075 0,0.10606602 0.10606602 0,
  0.075 0.12990381 0,0.038822857 0.14488887 0,
  0 0.15 0,-0.038822857 0.14488887 0,
  -0.075 0.12990381 0,-0.10606602 0.10606602 0,
  -0.12990381 0.075 0,-0.14488887 0.038822857 0] }
 coordIndex [
  16,14,15,-1,21,0,1,-1,21,1,2,-1,21,2,3,-1,21,3,4,-1,21,4,5,-1,21,5,6,-1,21,6,7,-1,
  21,7,8,-1,21,8,9,-1,21,9,10,-1,21,10,11,-1,21,11,12,-1,21,12,13,-1,21,13,14,-1,21,16,17,-1,
  21,17,18,-1,21,18,19,-1,21,19,20,-1,21,22,23,-1,21,23,0,-1,21,14,16,-1]
  normalPerVertex TRUE
  normal DEF NORM_6 Normal { vector [
  0 0 1,0 0 1,
  0 0 1,0 0 1,
  0 0 1,0 0 1,
  0 0 1,0 0 1,
  0 0 1,0 0 1,
  0 0 1,0 0 1,
  0 0 1,0 0 1,
  0 0 1,0 0 1,
  0 0 1,0 0 1,
  0 0 1,0 0 1,
  0 0 1,0 0 1,
  0 0 1,0 0 1] }
}
}
] }
DEF TXFM_5 Transform {
  center 0 0 0
  rotation 0 0 1 0
  scale 1 1 1
  scaleOrientation 0 0 1 0
  translation 0 0 0
 children [
DEF SHAPE_7 Shape {
 appearance DEF APP_2 Appearance {
  material Material {
   ambientIntensity 1
   diffuseColor 0.294 0 0
   emissiveColor 0 0 0
   shininess 0.1
   specularColor 0.12 0.12 0.12
   transparency 0
} }
 geometry DEF FACE_7 IndexedFaceSet {
  coord DEF COORD_7 Coordinate { point [
  -1.8708661 0 3.35,-1.7734663 -0.73892837 3.35,
  -1.4882506 -1.4275 3.35,-1.0345379 -2.0187899 3.35,
  -0.44324803 -2.4725025 3.35,0.24532359 -2.7577182 3.35,
  0.98425197 -2.855 3.35,1.7231803 -2.7577182 3.35,
  2.411752 -2.4725025 3.35,3.0030418 -2.0187899 3.35,
  3.4567545 -1.4275 3.35,3.7419702 -0.73892837 3.35,
  3.839252 0 3.35,3.7419702 0.73892837 3.35,
  3.4567545 1.4275 3.35,3.0030418 2.0187899 3.35,
  2.411752 2.4725025 3.35,1.7231803 2.7577182 3.35,
  0.98425197 2.855 3.35,0.24532359 2.7577182 3.35,
  -0.44324803 2.4725025 3.35,-1.0345379 2.0187899 3.35,
  -1.4882506 1.4275 3.35,-1.7734663 0.73892837 3.35,
  -1.8708661 0 3.35,-1.8708661 0 0,
  -1.8708661 0 0,-1.7734663 0.73892837 0,
  -1.4882506 1.4275 0,-1.0345379 2.0187899 0,
  -0.44324803 2.4725025 0,0.24532359 2.7577182 0,
  0.98425197 2.855 0,1.7231803 2.7577182 0,
  2.411752 2.4725025 0,3.0030418 2.0187899 0,
  3.4567545 1.4275 0,3.7419702 0.73892837 0,
  3.839252 0 0,3.7419702 -0.73892837 0,
  3.4567545 -1.4275 0,3.0030418 -2.0187899 0,
  2.411752 -2.4725025 0,1.7231803 -2.7577182 0,
  0.98425197 -2.855 0,0.24532359 -2.7577182 0,
  -0.44324803 -2.4725025 0,-1.0345379 -2.0187899 0,
  -1.4882506 -1.4275 0,-1.7734663 -0.73892837 0] }
 coordIndex [
  1,0,25,-1,1,25,49,-1,2,49,48,-1,2,1,49,-1,3,48,47,-1,3,2,48,-1,4,47,46,-1,4,3,47,-1,
  5,46,45,-1,5,4,46,-1,6,45,44,-1,6,5,45,-1,7,44,43,-1,7,6,44,-1,8,43,42,-1,8,7,43,-1,
  9,42,41,-1,9,8,42,-1,10,41,40,-1,10,9,41,-1,11,40,39,-1,11,10,40,-1,12,11,39,-1,12,39,38,-1,
  13,12,38,-1,13,38,37,-1,14,13,37,-1,14,37,36,-1,15,14,36,-1,15,36,35,-1,16,15,35,-1,16,35,34,-1,
  17,16,34,-1,17,34,33,-1,18,17,33,-1,18,33,32,-1,19,32,31,-1,19,18,32,-1,20,31,30,-1,20,19,31,-1,
  21,30,29,-1,21,20,30,-1,22,29,28,-1,22,21,29,-1,23,28,27,-1,23,22,28,-1,24,27,26,-1,24,23,27,-1]
  normalPerVertex TRUE
  normal DEF NORM_7 Normal { vector [
  -0.99142434 -0.13068196 0,-0.97632173 -0.21632357 0,
  -0.88711369 -0.46155098 0,-0.73742784 -0.67542593 0,
  -0.5374875 -0.84327172 0,-0.30091828 -0.95364993 0,
  -0.04384197 -0.99903848 0,0.21622209 -0.9763442 0,
  0.46155098 -0.88711369 0,0.67542593 -0.73742784 0,
  0.84327172 -0.5374875 0,0.95364993 -0.30091828 0,
  0.99903848 -0.04384197 0,0.9763442 0.21622209 0,
  0.88711369 0.46155098 0,0.73742784 0.67542593 0,
  0.5374875 0.84327172 0,0.30091828 0.95364993 0,
  0.04384197 0.99903848 0,-0.21622209 0.9763442 0,
  -0.46155098 0.88711369 0,-0.67542593 0.73742784 0,
  -0.84327172 0.5374875 0,-0.95363465 0.30096668 0,
  -0.99142434 0.13068196 0,-0.99142434 -0.13068196 0,
  -0.99142434 0.13068196 0,-0.97632173 0.21632357 0,
  -0.88711369 0.46155098 0,-0.73742784 0.67542593 0,
  -0.5374875 0.84327172 0,-0.30091828 0.95364993 0,
  -0.04384197 0.99903848 0,0.21622209 0.9763442 0,
  0.46155098 0.88711369 0,0.67542593 0.73742784 0,
  0.84327172 0.5374875 0,0.95364993 0.30091828 0,
  0.99903848 0.04384197 0,0.9763442 -0.21622209 0,
  0.88711369 -0.46155098 0,0.73742784 -0.67542593 0,
  0.5374875 -0.84327172 0,0.30091828 -0.95364993 0,
  0.04384197 -0.99903848 0,-0.21622209 -0.9763442 0,
  -0.46155098 -0.88711369 0,-0.67542593 -0.73742784 0,
  -0.84327172 -0.5374875 0,-0.95363465 -0.30096668 0] }
}
}
DEF SHAPE_8 Shape {
 appearance USE APP_2
 geometry DEF FACE_8 IndexedFaceSet {
  coord DEF COORD_8 Coordinate { point [
  -1.8708661 0 0,-1.7734663 0.73892837 0,
  -1.4882506 1.4275 0,-1.0345379 2.0187899 0,
  -0.44324803 2.4725025 0,0.24532359 2.7577182 0,
  0.98425197 2.855 0,1.7231803 2.7577182 0,
  2.411752 2.4725025 0,3.0030418 2.0187899 0,
  3.4567545 1.4275 0,3.7419702 0.73892837 0,
  3.839252 0 0,3.7419702 -0.73892837 0,
  3.4567545 -1.4275 0,3.0030418 -2.0187899 0,
  2.411752 -2.4725025 0,1.7231803 -2.7577182 0,
  0.98425197 -2.855 0,0.24532359 -2.7577182 0,
  -0.44324803 -2.4725025 0,-1.0345379 -2.0187899 0,
  -1.4882506 -1.4275 0,-1.7734663 -0.73892837 0] }
 coordIndex [
  10,11,12,-1,10,12,13,-1,10,13,14,-1,10,14,15,-1,21,16,17,-1,21,17,18,-1,21,18,19,-1,21,19,20,-1,
  9,10,15,-1,22,16,21,-1,23,16,22,-1,6,7,8,-1,6,8,9,-1,2,0,1,-1,2,23,0,-1,3,4,5,-1,
  3,5,6,-1,3,15,16,-1,3,6,9,-1,3,9,15,-1,3,16,23,-1,3,23,2,-1]
  normalPerVertex TRUE
  normal DEF NORM_8 Normal { vector [
  0 0 -1,0 0 -1,
  0 0 -1,0 0 -1,
  0 0 -1,0 0 -1,
  0 0 -1,0 0 -1,
  0 0 -1,0 0 -1,
  0 0 -1,0 0 -1,
  0 0 -1,0 0 -1,
  0 0 -1,0 0 -1,
  0 0 -1,0 0 -1,
  0 0 -1,0 0 -1,
  0 0 -1,0 0 -1,
  0 0 -1,0 0 -1] }
}
}
DEF SHAPE_9 Shape {
 appearance USE APP_2
 geometry DEF FACE_9 IndexedFaceSet {
  coord DEF COORD_9 Coordinate { point [
  -1.8708661 0 3.35,-1.7734663 -0.73892837 3.35,
  -1.4882506 -1.4275 3.35,-1.0345379 -2.0187899 3.35,
  -0.44324803 -2.4725025 3.35,0.24532359 -2.7577182 3.35,
  0.98425197 -2.855 3.35,1.7231803 -2.7577182 3.35,
  2.411752 -2.4725025 3.35,3.0030418 -2.0187899 3.35,
  3.4567545 -1.4275 3.35,3.7419702 -0.73892837 3.35,
  3.839252 0 3.35,3.7419702 0.73892837 3.35,
  3.4567545 1.4275 3.35,3.0030418 2.0187899 3.35,
  2.411752 2.4725025 3.35,1.7231803 2.7577182 3.35,
  0.98425197 2.855 3.35,0.24532359 2.7577182 3.35,
  -0.44324803 2.4725025 3.35,-1.0345379 2.0187899 3.35,
  -1.4882506 1.4275 3.35,-1.7734663 0.73892837 3.35] }
 coordIndex [
  7,8,9,-1,7,9,10,-1,12,10,11,-1,5,6,7,-1,15,12,13,-1,15,13,14,-1,15,10,12,-1,0,1,2,-1,
  23,0,2,-1,21,2,3,-1,21,3,4,-1,21,4,5,-1,21,15,16,-1,21,16,17,-1,21,17,18,-1,21,18,19,-1,
  21,19,20,-1,21,22,23,-1,21,7,10,-1,21,5,7,-1,21,10,15,-1,21,23,2,-1]
  normalPerVertex TRUE
  normal DEF NORM_9 Normal { vector [
  0 0 1,0 0 1,
  0 0 1,0 0 1,
  0 0 1,0 0 1,
  0 0 1,0 0 1,
  0 0 1,0 0 1,
  0 0 1,0 0 1,
  0 0 1,0 0 1,
  0 0 1,0 0 1,
  0 0 1,0 0 1,
  0 0 1,0 0 1,
  0 0 1,0 0 1,
  0 0 1,0 0 1] }
}
}
] }
DEF TXFM_6 Transform {
  center 0 0 0
  rotation 0 0 1 0
  scale 1 1 1
  scaleOrientation 0 0 1 0
  translation 0 0 0
 children [
DEF SHAPE_10 Shape {
 appearance DEF APP_3 Appearance {
  material Material {
   ambientIntensity 0.17006803
   diffuseColor 0.588 0.588 0.588
   emissiveColor 0 0 0
   shininess 0.1
   specularColor 0.12 0.12 0.12
   transparency 0
} }
 geometry DEF FACE_10 IndexedFaceSet {
  coord DEF COORD_10 Coordinate { point [
  3.7885827 0.55708661 0.66614173,3.7984252 0.55708661 0.66614173,
  3.7885827 0.55708661 3.346063,1.5594488 0.55708661 3.346063,
  1.5594488 0.55708661 3.3562992,3.7984252 0.55708661 3.3562992] }
 coordIndex [
  2,1,0,-1,2,3,4,-1,5,2,4,-1,5,1,2,-1]
  normalPerVertex TRUE
  normal DEF NORM_10 Normal { vector [
  0 1 0,0 1 0,
  0 1 0,0 1 0,
  0 1 0,0 1 0] }
}
}
DEF SHAPE_11 Shape {
 appearance USE APP_3
 geometry DEF FACE_11 IndexedFaceSet {
  coord DEF COORD_11 Coordinate { point [
  3.7984252 -0.55708661 0.66614173,3.7885827 -0.55708661 0.66614173,
  3.7984252 -0.55708661 3.3562992,1.5594488 -0.55708661 3.3562992,
  1.5594488 -0.55708661 3.346063,3.7885827 -0.55708661 3.346063] }
 coordIndex [
  5,1,0,-1,2,5,0,-1,3,4,5,-1,3,5,2,-1]
  normalPerVertex TRUE
  normal DEF NORM_11 Normal { vector [
  0 -1 0,0 -1 0,
  0 -1 0,0 -1 0,
  0 -1 0,0 -1 0] }
}
}
DEF SHAPE_12 Shape {
 appearance USE APP_3
 geometry DEF FACE_12 IndexedFaceSet {
  coord DEF COORD_12 Coordinate { point [
  1.5594488 -0.55708661 3.346063,1.5594488 0.55708661 3.346063,
  1.5594488 -0.55708661 3.3562992,1.5594488 0.55708661 3.3562992] }
 coordIndex [
  3,1,0,-1,3,0,2,-1]
  normalPerVertex TRUE
  normal DEF NORM_12 Normal { vector [
  -1 0 0,-1 0 0,
  -1 0 0,-1 0 0] }
}
}
DEF SHAPE_13 Shape {
 appearance USE APP_3
 geometry DEF FACE_13 IndexedFaceSet {
  coord DEF COORD_13 Coordinate { point [
  3.7984252 -0.55708661 3.3562992,3.7984252 -0.55708661 0.66614173,
  3.7984252 0.55708661 0.66614173,3.8470954 0.18675876 0.66614173,
  3.8470954 -0.18675876 0.66614173,3.7984252 0.55708661 3.3562992,
  3.8470954 -0.18675876 3.3562992,3.8470954 0.18675876 3.3562992] }
 coordIndex [
  6,0,1,-1,6,1,4,-1,7,4,3,-1,7,6,4,-1,5,3,2,-1,5,7,3,-1]
  normalPerVertex TRUE
  normal DEF NORM_13 Normal { vector [
  0.99147406 -0.13030422 0,0.99147406 -0.13030422 0,
  0.99147406 0.13030422 0,0.99620533 0.087034141 0,
  0.99905269 -0.04351687 0,0.99147406 0.13030422 0,
  0.99620533 -0.087034141 0,0.99905269 0.04351687 0] }
}
}
DEF SHAPE_14 Shape {
 appearance USE APP_3
 geometry DEF FACE_14 IndexedFaceSet {
  coord DEF COORD_14 Coordinate { point [
  3.7885827 0.55708661 3.346063,3.8370751 0.18674344 3.346063,
  3.8370751 -0.18674344 3.346063,3.7885827 -0.55708661 3.346063,
  3.7885827 -0.55708661 0.66614173,3.8370751 -0.18674344 0.66614173,
  3.8370751 0.18674344 0.66614173,3.7885827 0.55708661 0.66614173] }
 coordIndex [
  3,5,4,-1,2,5,3,-1,1,6,5,-1,1,7,6,-1,1,5,2,-1,0,7,1,-1]
  normalPerVertex TRUE
  normal DEF NORM_14 Normal { vector [
  -0.99153616 -0.12983079 0,-0.9978817 -0.06505472 0,
  -0.9978817 0.06505472 0,-0.99153616 0.12983079 0,
  -0.99153616 0.12983079 0,-0.9978817 0.06505472 0,
  -0.9978817 -0.06505472 0,-0.99153616 -0.12983079 0] }
}
}
DEF SHAPE_15 Shape {
 appearance USE APP_3
 geometry DEF FACE_15 IndexedFaceSet {
  coord DEF COORD_15 Coordinate { point [
  3.7885827 0.55708661 0.66614173,3.7984252 0.55708661 0.66614173,
  3.8470954 0.18675876 0.66614173,3.8470954 -0.18675876 0.66614173,
  3.7984252 -0.55708661 0.66614173,3.7885827 -0.55708661 0.66614173,
  3.8370751 -0.18674344 0.66614173,3.8370751 0.18674344 0.66614173] }
 coordIndex [
  7,0,1,-1,2,7,1,-1,3,6,7,-1,3,7,2,-1,4,5,6,-1,4,6,3,-1]
  normalPerVertex TRUE
  normal DEF NORM_15 Normal { vector [
  0 0 -1,0 0 -1,
  0 0 -1,0 0 -1,
  0 0 -1,0 0 -1,
  0 0 -1,0 0 -1] }
}
}
DEF SHAPE_16 Shape {
 appearance USE APP_3
 geometry DEF FACE_16 IndexedFaceSet {
  coord DEF COORD_16 Coordinate { point [
  3.7885827 -0.55708661 3.346063,1.5594488 -0.55708661 3.346063,
  1.5594488 0.55708661 3.346063,3.7885827 0.55708661 3.346063,
  3.8370751 0.18674344 3.346063,3.8370751 -0.18674344 3.346063] }
 coordIndex [
  4,2,3,-1,5,1,2,-1,5,2,4,-1,0,1,5,-1]
  normalPerVertex TRUE
  normal DEF NORM_16 Normal { vector [
  0 0 -1,0 0 -1,
  0 0 -1,0 0 -1,
  0 0 -1,0 0 -1] }
}
}
DEF SHAPE_17 Shape {
 appearance USE APP_3
 geometry DEF FACE_17 IndexedFaceSet {
  coord DEF COORD_17 Coordinate { point [
  3.7984252 0.55708661 3.3562992,1.5594488 0.55708661 3.3562992,
  1.5594488 -0.55708661 3.3562992,3.7984252 -0.55708661 3.3562992,
  3.8470954 -0.18675876 3.3562992,3.8470954 0.18675876 3.3562992] }
 coordIndex [
  4,2,3,-1,5,1,2,-1,5,2,4,-1,0,1,5,-1]
  normalPerVertex TRUE
  normal DEF NORM_17 Normal { vector [
  0 0 1,0 0 1,
  0 0 1,0 0 1,
  0 0 1,0 0 1] }
}
}
] }
] }
] }
